<svg width="116" height="116" viewBox="0 0 116 116" fill="none" xmlns="http://www.w3.org/2000/svg">
<path d="M82.4687 38.75V47.9688C82.4687 49.9969 80.8094 51.6563 78.7812 51.6563H76.5503L76.3659 49.8125H40.6341L40.4497 51.6563H38.2187C36.1906 51.6563 34.5312 49.9969 34.5312 47.9688V38.75C34.5312 36.7219 36.1906 35.0625 38.2187 35.0625H78.7812C80.8094 35.0625 82.4687 36.7219 82.4687 38.75Z" fill="#3D3781"/>
<path d="M78.7813 33.2188H38.2188C35.1686 33.2188 32.6875 35.6999 32.6875 38.75V47.9687C32.6875 51.0189 35.1686 53.5 38.2188 53.5H38.3994L38.2287 55.1548C38.1747 55.6732 38.3439 56.191 38.6933 56.5791C39.0435 56.9662 39.5405 57.1877 40.0627 57.1877H76.9375C77.4597 57.1877 77.9565 56.9662 78.3069 56.5791C78.6562 56.1911 78.8253 55.6734 78.7715 55.1548L78.6007 53.5H78.7814C81.8316 53.5 84.3127 51.0189 84.3127 47.9687V38.75C84.3127 35.6999 81.8314 33.2188 78.7813 33.2188ZM42.1061 53.5L42.2969 51.6562H74.7031L74.8939 53.5H42.1061ZM80.625 47.9687C80.625 48.9852 79.7977 49.8125 78.7813 49.8125H78.22L78.2005 49.6235C78.1033 48.6836 77.312 47.9687 76.3667 47.9687H40.6333C39.688 47.9687 38.8967 48.6836 38.7995 49.6235L38.78 49.8125H38.2188C37.2023 49.8125 36.375 48.9852 36.375 47.9687V38.75C36.375 37.7335 37.2023 36.9062 38.2188 36.9062H78.7813C79.7977 36.9062 80.625 37.7335 80.625 38.75V47.9687ZM78.7813 42.4375C78.7813 43.4556 77.9556 44.2812 76.9375 44.2812H75.0938C74.0756 44.2812 73.25 43.4556 73.25 42.4375C73.25 41.4194 74.0756 40.5937 75.0938 40.5937H76.9375C77.9556 40.5937 78.7813 41.4194 78.7813 42.4375ZM71.4063 42.4375C71.4063 43.4556 70.5806 44.2812 69.5625 44.2812H67.7188C66.7006 44.2812 65.875 43.4556 65.875 42.4375C65.875 41.4194 66.7006 40.5937 67.7188 40.5937H69.5625C70.5806 40.5937 71.4063 41.4194 71.4063 42.4375ZM68.9557 70.5403C69.7111 71.2236 69.7696 72.3894 69.0863 73.1448C68.7225 73.5473 68.2212 73.7516 67.7178 73.7516C67.2766 73.7516 66.8347 73.5941 66.4818 73.2753C61.804 69.0432 62.0984 61.1423 62.1128 60.8075C62.1578 59.7911 63.0303 58.9763 64.0331 59.0493C65.0486 59.0925 65.8381 59.9515 65.7966 60.9677C65.7939 61.0326 65.5724 67.4802 68.9557 70.5403ZM80.4539 69.026C80.1416 69.6984 79.4752 70.0937 78.7803 70.0937C78.5202 70.0937 78.2563 70.0388 78.0052 69.9226C77.8026 69.8281 73.0312 67.5531 71.2442 61.3971C70.9606 60.4194 71.5233 59.3959 72.5009 59.1122C73.4821 58.8286 74.5021 59.3913 74.7859 60.3689C76.0894 64.8593 79.523 66.5619 79.5573 66.5772C80.481 67.0056 80.8826 68.1023 80.4539 69.026ZM54.8872 60.8075C54.9016 61.1423 55.196 69.0432 50.5182 73.2753C50.1653 73.5941 49.7232 73.7516 49.2822 73.7516C48.779 73.7516 48.2784 73.5473 47.9137 73.1448C47.2304 72.3894 47.2889 71.2236 48.0443 70.5403C50.8702 67.9845 51.2825 62.7656 51.2034 60.9714C51.1584 59.954 51.946 59.0926 52.9634 59.0475C53.9555 59.0016 54.8413 59.7892 54.8872 60.8075ZM45.7558 61.3971C43.9689 67.5532 39.1974 69.8282 38.9948 69.9226C38.7437 70.0388 38.4798 70.0937 38.2197 70.0937C37.5246 70.0937 36.8584 69.6984 36.5461 69.026C36.1195 68.106 36.5164 67.0139 37.4329 66.5818C37.6059 66.4981 40.9178 64.8361 42.2143 60.3691C42.4979 59.3913 43.517 58.8279 44.4993 59.1124C45.477 59.3959 46.0394 60.4194 45.7558 61.3971Z" fill="#3D3781"/>
<g filter="url(#filter0_d_822_2617)">
<path d="M19.8162 15.8162C10.9822 24.6503 5.48457 36.2741 4.26002 48.7071C3.03548 61.1401 6.1598 73.6131 13.1006 84.0008C20.0415 94.3885 30.3694 102.048 42.3246 105.675C54.2799 109.301 67.1227 108.67 78.6649 103.889C90.2071 99.1086 99.7345 90.4734 105.624 79.4554C111.513 68.4374 113.4 55.7183 110.962 43.4651C108.525 31.212 101.915 20.183 92.2572 12.2574C82.5999 4.33184 70.4932 9.43209e-07 58 0V12.6872C67.5579 12.6872 76.8202 16.0013 84.2085 22.0648C91.5969 28.1283 96.6543 36.566 98.5189 45.9403C100.384 55.3146 98.9402 65.0454 94.4346 73.4747C89.929 81.904 82.6401 88.5103 73.8097 92.168C64.9793 95.8257 55.1539 96.3084 46.0075 93.5338C36.8612 90.7593 28.9598 84.8993 23.6497 76.9521C18.3396 69.005 15.9493 59.4625 16.8862 49.9506C17.823 40.4387 22.029 31.5459 28.7875 24.7875L19.8162 15.8162Z" fill="#BDBDBD"/>
<path d="M58 0C50.9086 -8.45639e-08 43.8867 1.39675 37.3351 4.11051C30.7835 6.82426 24.8306 10.8019 19.8162 15.8162L28.7875 24.7875C32.6237 20.9512 37.178 17.9082 42.1903 15.832C47.2026 13.7558 52.5747 12.6872 58 12.6872V0Z" fill="#FF4B40"/>
</g>
<defs>
<filter id="filter0_d_822_2617" x="0" y="0" width="116" height="116" filterUnits="userSpaceOnUse" color-interpolation-filters="sRGB">
<feFlood flood-opacity="0" result="BackgroundImageFix"/>
<feColorMatrix in="SourceAlpha" type="matrix" values="0 0 0 0 0 0 0 0 0 0 0 0 0 0 0 0 0 0 127 0" result="hardAlpha"/>
<feOffset dy="4"/>
<feGaussianBlur stdDeviation="2"/>
<feComposite in2="hardAlpha" operator="out"/>
<feColorMatrix type="matrix" values="0 0 0 0 0 0 0 0 0 0 0 0 0 0 0 0 0 0 0.25 0"/>
<feBlend mode="normal" in2="BackgroundImageFix" result="effect1_dropShadow_822_2617"/>
<feBlend mode="normal" in="SourceGraphic" in2="effect1_dropShadow_822_2617" result="shape"/>
</filter>
</defs>
</svg>
