<svg width="16" height="22" viewBox="0 0 16 22" fill="none" xmlns="http://www.w3.org/2000/svg">
<path d="M8.87496 1.6665C8.87496 1.43444 8.78278 1.21188 8.61868 1.04779C8.45459 0.883691 8.23203 0.791504 7.99996 0.791504C7.7679 0.791504 7.54534 0.883691 7.38125 1.04779C7.21715 1.21188 7.12496 1.43444 7.12496 1.6665L7.12496 12.4582H0.999963C0.827016 12.4583 0.657994 12.5097 0.514242 12.6059C0.370491 12.702 0.258458 12.8386 0.192295 12.9984C0.126132 13.1582 0.108805 13.334 0.142504 13.5037C0.176202 13.6733 0.259414 13.8291 0.38163 13.9515L7.38163 20.9515C7.54569 21.1154 7.76809 21.2074 7.99996 21.2074C8.23184 21.2074 8.45423 21.1154 8.6183 20.9515L15.6183 13.9515C15.7405 13.8291 15.8237 13.6733 15.8574 13.5037C15.8911 13.334 15.8738 13.1582 15.8076 12.9984C15.7415 12.8386 15.6294 12.702 15.4857 12.6059C15.3419 12.5097 15.1729 12.4583 15 12.4582H8.87496L8.87496 1.6665Z" fill="#3D3781"/>
</svg>
