<svg width="90" height="102" viewBox="0 0 90 102" fill="none" xmlns="http://www.w3.org/2000/svg">
<g filter="url(#filter0_d_949_1585)">
<path d="M86 66.6821V27.2694C86 24.6099 84.5765 22.172 82.2915 20.8053L48.952 1.08043C46.5171 -0.360144 43.5203 -0.360144 41.0854 1.08043L7.70854 20.8053C5.38602 22.172 4 24.6099 4 27.2694V66.6821C4 69.3416 5.42348 71.7795 7.70854 73.1462L41.0854 92.871C44.6067 94.8657 47.5286 93.7945 48.952 92.871L82.2915 73.1462C84.5765 71.7795 86 69.3416 86 66.6821Z" fill="#D8D8F0"/>
<path d="M31.7417 33.7418C32.1637 33.3199 32.736 33.0828 33.3327 33.0828C33.9295 33.0828 34.5018 33.3199 34.9237 33.7418L45 43.8181L55.0763 33.7418C55.4982 33.3199 56.0705 33.0828 56.6673 33.0828C57.264 33.0828 57.8363 33.3199 58.2583 33.7418C58.6802 34.1638 58.9173 34.7361 58.9173 35.3328C58.9173 35.9296 58.6802 36.5019 58.2583 36.9238L48.182 47.0001L58.2583 57.0764C58.6802 57.4983 58.9173 58.0706 58.9173 58.6674C58.9173 59.2641 58.6802 59.8364 58.2583 60.2583C57.8363 60.6803 57.264 60.9174 56.6673 60.9174C56.0705 60.9174 55.4982 60.6803 55.0763 60.2583L45 50.1821L34.9237 60.2583C34.5018 60.6803 33.9295 60.9174 33.3327 60.9174C32.736 60.9174 32.1637 60.6803 31.7417 60.2583C31.3198 59.8364 31.0827 59.2641 31.0827 58.6674C31.0827 58.0706 31.3198 57.4983 31.7417 57.0764L41.818 47.0001L31.7417 36.9238C31.3198 36.5019 31.0827 35.9296 31.0827 35.3328C31.0827 34.7361 31.3198 34.1638 31.7417 33.7418Z" fill="#6862A8"/>
</g>
<defs>
<filter id="filter0_d_949_1585" x="0" y="0" width="90" height="102" filterUnits="userSpaceOnUse" color-interpolation-filters="sRGB">
<feFlood flood-opacity="0" result="BackgroundImageFix"/>
<feColorMatrix in="SourceAlpha" type="matrix" values="0 0 0 0 0 0 0 0 0 0 0 0 0 0 0 0 0 0 127 0" result="hardAlpha"/>
<feOffset dy="4"/>
<feGaussianBlur stdDeviation="2"/>
<feComposite in2="hardAlpha" operator="out"/>
<feColorMatrix type="matrix" values="0 0 0 0 0 0 0 0 0 0 0 0 0 0 0 0 0 0 0.25 0"/>
<feBlend mode="normal" in2="BackgroundImageFix" result="effect1_dropShadow_949_1585"/>
<feBlend mode="normal" in="SourceGraphic" in2="effect1_dropShadow_949_1585" result="shape"/>
</filter>
</defs>
</svg>
