<svg width="90" height="102" viewBox="0 0 90 102" fill="none" xmlns="http://www.w3.org/2000/svg">
<g filter="url(#filter0_d_834_3541)">
<path d="M86 66.6821V27.2694C86 24.6099 84.5765 22.172 82.2915 20.8053L48.952 1.08043C46.5171 -0.360144 43.5203 -0.360144 41.0854 1.08043L7.70854 20.8053C5.38602 22.172 4 24.6099 4 27.2694V66.6821C4 69.3416 5.42348 71.7795 7.70854 73.1462L41.0854 92.871C44.6067 94.8657 47.5286 93.7945 48.952 92.871L82.2915 73.1462C84.5765 71.7795 86 69.3416 86 66.6821Z" fill="#3D3781"/>
<path d="M63.9275 33.0695C63.4822 32.0148 62.736 31.1151 61.7824 30.4828C60.8288 29.8505 59.7102 29.5137 58.5664 29.5146H54.6927C54.6818 29.0072 54.4727 28.5242 54.1103 28.1693C53.7479 27.8143 53.2611 27.6155 52.7541 27.6155C52.2471 27.6155 51.7602 27.8143 51.3979 28.1693C51.0355 28.5242 50.8264 29.0072 50.8154 29.5146H39.1845C39.1735 29.0072 38.9645 28.5242 38.6021 28.1693C38.2397 27.8143 37.7529 27.6155 37.2459 27.6155C36.7388 27.6155 36.252 27.8143 35.8896 28.1693C35.5273 28.5242 35.3182 29.0072 35.3072 29.5146H31.4308C30.6669 29.5139 29.9104 29.664 29.2045 29.9563C28.4986 30.2486 27.8572 30.6774 27.3171 31.2181C26.7769 31.7589 26.3486 32.4009 26.0566 33.1076C25.7646 33.8142 25.6146 34.5715 25.6154 35.3363V60.5631C25.6146 61.3278 25.7646 62.0851 26.0566 62.7918C26.3486 63.4984 26.7769 64.1405 27.3171 64.6812C27.8572 65.2219 28.4986 65.6507 29.2045 65.943C29.9104 66.2353 30.6669 66.3854 31.4308 66.3847H58.5691C59.333 66.3854 60.0895 66.2353 60.7954 65.943C61.5013 65.6507 62.1427 65.2219 62.6829 64.6812C63.223 64.1405 63.6514 63.4984 63.9434 62.7918C64.2354 62.0851 64.3853 61.3278 64.3846 60.5631V35.3363C64.3859 34.5576 64.2305 33.7866 63.9275 33.0695ZM60.5082 60.5631C60.5077 61.0777 60.3033 61.5712 59.9397 61.9351C59.5762 62.2991 59.0832 62.5037 58.5691 62.5042H31.4308C30.9167 62.5037 30.4238 62.2991 30.0602 61.9351C29.6967 61.5712 29.4922 61.0777 29.4917 60.5631V43.0981H60.5082V60.5631ZM60.5082 39.2177H29.4917V35.3363C29.4925 34.8217 29.697 34.3285 30.0605 33.9648C30.4241 33.601 30.9169 33.3965 31.4308 33.396H35.3072C35.3182 33.9034 35.5273 34.3864 35.8896 34.7414C36.252 35.0964 36.7388 35.2951 37.2459 35.2951C37.7529 35.2951 38.2397 35.0964 38.6021 34.7414C38.9645 34.3864 39.1735 33.9034 39.1845 33.396H50.8154C50.8264 33.9034 51.0355 34.3864 51.3979 34.7414C51.7602 35.0964 52.2471 35.2951 52.7541 35.2951C53.2611 35.2951 53.7479 35.0964 54.1103 34.7414C54.4727 34.3864 54.6818 33.9034 54.6927 33.396H58.5691C59.0831 33.3965 59.5759 33.601 59.9394 33.9648C60.3029 34.3285 60.5075 34.8217 60.5082 35.3363V39.2177Z" fill="#FFC040"/>
<path d="M35.0025 49.099V49.1477C35.0025 49.1637 35.0025 49.1805 35.0072 49.1965L35.0128 49.2452C35.0128 49.2612 35.0128 49.278 35.0194 49.294C35.0259 49.3099 35.0241 49.3268 35.0269 49.3427C35.0297 49.3587 35.0334 49.3746 35.0362 49.3905C35.0391 49.4065 35.0428 49.4224 35.0466 49.4383L35.0578 49.4862C35.0578 49.5021 35.0662 49.518 35.0709 49.533C35.0756 49.548 35.0794 49.5649 35.0841 49.5808C35.0887 49.5968 35.0944 49.6118 35.0991 49.6277C35.1037 49.6437 35.1094 49.6587 35.115 49.6737L35.1319 49.7196L35.1506 49.7646C35.1562 49.7796 35.1628 49.7946 35.1694 49.8096L35.19 49.8546L35.2116 49.8987L35.2341 49.9418L35.2575 49.9849L35.2819 50.0271C35.2903 50.0412 35.2987 50.0552 35.3081 50.0693L35.3344 50.1105L35.3616 50.1508L35.3906 50.1902L35.4206 50.2296C35.43 50.2427 35.4403 50.2549 35.4506 50.268C35.4609 50.2812 35.4722 50.2933 35.4825 50.3055L35.5153 50.343L35.5481 50.3787L35.5828 50.4143C35.595 50.4255 35.6062 50.4377 35.6184 50.448C35.6306 50.4583 35.6419 50.4715 35.6541 50.4818L35.6916 50.5146L35.7291 50.5465L35.7675 50.5765L35.8069 50.6065L35.8462 50.6355L35.8866 50.6627L35.9278 50.689L35.97 50.7152L36.0122 50.7396L36.0553 50.763L36.0984 50.7855L36.1425 50.8071L36.1875 50.8277L36.2325 50.8465L36.2775 50.8652L36.3234 50.8821L36.3694 50.898L36.4162 50.913L36.4631 50.9262L36.5109 50.9393L36.5587 50.9505L36.6066 50.9608L36.6544 50.9702L36.7031 50.9777L36.7519 50.9843L36.8006 50.9899L36.8494 50.9946H36.8981H36.9478H37.0462H37.0959H37.1447L37.1934 50.9899L37.2431 50.9843L37.2909 50.9777L37.3397 50.9702L37.3884 50.9608L37.4353 50.9505L37.4831 50.9393L37.5309 50.9262L37.5778 50.913L37.6247 50.898L37.6706 50.8821L37.7166 50.8652L37.7625 50.8465L37.8075 50.8277L37.8516 50.8071L37.8956 50.7855L37.9387 50.763L37.9819 50.7396L38.0241 50.7152L38.0662 50.689L38.1075 50.6627L38.1478 50.6355L38.1881 50.6065L38.2266 50.5765L38.265 50.5465L38.3034 50.5146L38.34 50.4818C38.3522 50.4715 38.3644 50.4593 38.3756 50.448C38.3869 50.4368 38.4 50.4255 38.4112 50.4143L38.4459 50.3787L38.4797 50.343L38.5116 50.3055C38.5228 50.2933 38.5331 50.2812 38.5434 50.268L38.5744 50.2296L38.6034 50.1902L38.6325 50.1508L38.6597 50.1105L38.6869 50.0693L38.7122 50.0271C38.7206 50.013 38.7291 49.999 38.7366 49.9849C38.7441 49.9708 38.7525 49.9558 38.76 49.9418C38.7682 49.9278 38.7757 49.9134 38.7825 49.8987L38.8041 49.8546C38.8116 49.8396 38.8181 49.8246 38.8247 49.8096L38.8444 49.7646L38.8622 49.7196L38.8791 49.6737C38.8847 49.6587 38.8903 49.6427 38.895 49.6277C38.8997 49.6127 38.9053 49.5958 38.91 49.5808L38.9241 49.533C38.9241 49.518 38.9325 49.5021 38.9362 49.4862L38.9475 49.4383C38.9475 49.4224 38.955 49.4065 38.9578 49.3905C38.9606 49.3746 38.9644 49.3587 38.9672 49.3427C38.97 49.3268 38.9728 49.3099 38.9747 49.294C38.9766 49.278 38.9794 49.2612 38.9822 49.2452C38.985 49.2293 38.9822 49.2133 38.9822 49.1965C38.9822 49.1796 38.9822 49.1637 38.9869 49.1477V49.099C38.9869 49.0821 38.9869 49.0652 38.9869 49.0493C38.9869 49.0333 38.9869 49.0165 38.9869 48.9996C38.9869 48.9827 38.9869 48.9668 38.9869 48.9508C38.9869 48.9349 38.9869 48.918 38.9869 48.9012V48.8524C38.9869 48.8355 38.9869 48.8196 38.9822 48.8027C38.9775 48.7858 38.9822 48.7708 38.9822 48.754C38.9822 48.7371 38.9775 48.7221 38.9747 48.7062C38.9719 48.6902 38.9747 48.6733 38.9672 48.6574C38.9597 48.6415 38.9616 48.6255 38.9578 48.6087C38.9541 48.5918 38.9512 48.5768 38.9475 48.5608L38.9362 48.513C38.9362 48.498 38.9278 48.4821 38.9241 48.4662L38.91 48.4193C38.91 48.4033 38.9006 48.3883 38.895 48.3724C38.8894 48.3565 38.8847 48.3415 38.8791 48.3265L38.8622 48.2805L38.8444 48.2346L38.8247 48.1896C38.8181 48.1755 38.8116 48.1605 38.8041 48.1455C38.7966 48.1305 38.79 48.1155 38.7825 48.1015C38.7759 48.0866 38.7684 48.0722 38.76 48.0583C38.7525 48.0433 38.745 48.0293 38.7366 48.0152C38.7281 48.0012 38.7206 47.9862 38.7122 47.973L38.6869 47.9308C38.6784 47.9168 38.6691 47.9037 38.6597 47.8896L38.6325 47.8493C38.6231 47.8362 38.6137 47.8221 38.6034 47.809L38.5744 47.7705L38.5434 47.7321L38.5116 47.6937L38.4797 47.6571L38.4459 47.6205L38.4112 47.5858C38.4 47.5737 38.3878 47.5624 38.3756 47.5512L38.34 47.5174L38.3034 47.4855L38.265 47.4537L38.2266 47.4227L38.1881 47.3937L38.1478 47.3646L38.1075 47.3374L38.0662 47.3102L38.0241 47.2849L37.9819 47.2605L37.9387 47.2371L37.8956 47.2137L37.8516 47.193L37.8075 47.1724L37.7625 47.1527L37.7166 47.1349L37.6706 47.118L37.6247 47.1021L37.5778 47.0871L37.5309 47.073L37.4831 47.0608L37.4353 47.0496L37.3884 47.0393L37.3397 47.0299L37.2909 47.0224L37.2431 47.0149L37.1934 47.0093H37.1447H37.0959H37.0462H36.9478H36.8981H36.8494H36.8006L36.7519 47.0149L36.7031 47.0224L36.6544 47.0299L36.6066 47.0393L36.5587 47.0496L36.5109 47.0608L36.4631 47.073L36.4162 47.0871L36.3694 47.1021L36.3234 47.118L36.2775 47.1349L36.2325 47.1527L36.1875 47.1724L36.1425 47.193L36.0984 47.2137L36.0553 47.2371L36.0122 47.2605L35.97 47.2849L35.9278 47.3102L35.8866 47.3374L35.8462 47.3646L35.8069 47.3937L35.7675 47.4227L35.7291 47.4537L35.6916 47.4855L35.6541 47.5174L35.6184 47.5512L35.5828 47.5858L35.5481 47.6205L35.5153 47.6571L35.4825 47.6937L35.4506 47.7321C35.4403 47.7443 35.43 47.7574 35.4206 47.7705C35.4112 47.7837 35.4 47.7958 35.3906 47.809L35.3616 47.8493L35.3344 47.8896L35.3081 47.9308C35.2987 47.9449 35.2903 47.959 35.2819 47.973C35.2734 47.9871 35.2659 48.0012 35.2575 48.0152C35.2491 48.0293 35.2416 48.0433 35.2341 48.0583L35.2116 48.1015C35.2041 48.1155 35.1966 48.1305 35.19 48.1455C35.1834 48.1605 35.1759 48.1755 35.1694 48.1896C35.1628 48.2037 35.1562 48.2196 35.1506 48.2346C35.145 48.2496 35.1384 48.2655 35.1319 48.2805L35.115 48.3265C35.1094 48.3415 35.1047 48.3574 35.0991 48.3724C35.0934 48.3874 35.0887 48.4033 35.0841 48.4193C35.0794 48.4352 35.0747 48.4502 35.0709 48.4662C35.0672 48.4821 35.0616 48.498 35.0578 48.513L35.0466 48.5608C35.0466 48.5768 35.04 48.5927 35.0362 48.6087C35.0325 48.6246 35.0297 48.6415 35.0269 48.6574C35.0241 48.6733 35.0222 48.6893 35.0194 48.7062C35.0166 48.723 35.0194 48.738 35.0128 48.754L35.0072 48.8027C35.0072 48.8196 35.0072 48.8355 35.0025 48.8524V48.9012C35.0025 48.918 35.0025 48.934 35.0025 48.9508C35.0025 48.9677 35.0025 48.9837 35.0025 48.9996C35.0025 49.0155 35.0025 49.0333 35.0025 49.0493C35.0025 49.0652 35.0016 49.0821 35.0025 49.099Z" fill="#FFC040"/>
<path d="M43.0022 49.0991C43.0022 49.115 43.0022 49.1309 43.0022 49.1478C43.0022 49.1647 43.0022 49.1806 43.0022 49.1966L43.0078 49.2453C43.0078 49.2612 43.0078 49.2781 43.0144 49.2941L43.0228 49.3428L43.0313 49.3906C43.0313 49.4066 43.0388 49.4225 43.0416 49.4384C43.0444 49.4544 43.0491 49.4703 43.0538 49.4862C43.0584 49.5022 43.0613 49.5181 43.0659 49.5331L43.08 49.5809L43.0941 49.6278L43.1109 49.6737C43.1157 49.6893 43.1214 49.7047 43.1278 49.7197C43.1334 49.7347 43.1391 49.7497 43.1456 49.7647L43.1653 49.8097L43.185 49.8547C43.1925 49.8687 43.1991 49.8837 43.2066 49.8987L43.2291 49.9419L43.2525 49.985C43.2609 49.9991 43.2694 50.0131 43.2769 50.0272L43.3031 50.0694L43.3294 50.1106L43.3575 50.1509L43.3856 50.1903L43.4156 50.2297L43.4466 50.2681L43.4775 50.3056L43.5103 50.3431L43.5441 50.3787L43.5788 50.4144C43.59 50.4256 43.6013 50.4378 43.6134 50.4481L43.65 50.4819L43.6866 50.5147L43.7241 50.5466L43.7625 50.5766L43.8019 50.6066L43.8413 50.6356L43.8825 50.6628C43.8956 50.6722 43.9097 50.6806 43.9238 50.6891C43.9378 50.6975 43.9509 50.7069 43.965 50.7153L44.0072 50.7397L44.0503 50.7631L44.0944 50.7856L44.1384 50.8072L44.1825 50.8278L44.2275 50.8466L44.2725 50.8653L44.3184 50.8822L44.3653 50.8981L44.4113 50.9131L44.4591 50.9262L44.5059 50.9394L44.5538 50.9506L44.6016 50.9609L44.6503 50.9703L44.6981 50.9778L44.7469 50.9844L44.7956 50.99L44.8444 50.9947H44.8941H44.9428H45.0422H45.0909H45.1406L45.1894 50.99L45.2381 50.9844L45.2869 50.9778L45.3347 50.9703L45.3834 50.9609L45.4313 50.9506L45.4791 50.9394L45.5259 50.9262L45.5728 50.9131L45.6197 50.8981L45.6656 50.8822L45.7116 50.8653L45.7575 50.8466L45.8025 50.8278L45.8466 50.8072L45.8906 50.7856L45.9347 50.7631L45.9769 50.7397L46.02 50.7153C46.0341 50.7069 46.0481 50.6984 46.0613 50.6891C46.0744 50.6797 46.0894 50.6722 46.1025 50.6628L46.1428 50.6356L46.1831 50.6066L46.2225 50.5766L46.2609 50.5466L46.2984 50.5147L46.335 50.4819L46.3716 50.4481C46.3838 50.4378 46.395 50.4256 46.4063 50.4144L46.4409 50.3787L46.4747 50.3431L46.5075 50.3056L46.5384 50.2681L46.5694 50.2297L46.5994 50.1903L46.6275 50.1509L46.6556 50.1106L46.6819 50.0694C46.6903 50.0553 46.6997 50.0412 46.7072 50.0272L46.7325 49.985L46.7559 49.9419L46.7784 49.8987C46.7859 49.8837 46.7925 49.8687 46.7991 49.8547C46.8056 49.8406 46.8131 49.8247 46.8197 49.8097L46.8394 49.7647C46.8459 49.7497 46.8516 49.7347 46.8572 49.7197C46.8636 49.7047 46.8693 49.6893 46.8741 49.6737L46.8909 49.6278L46.905 49.5809L46.9191 49.5331C46.9238 49.5181 46.9275 49.5022 46.9313 49.4862C46.935 49.4703 46.9397 49.4544 46.9434 49.4384C46.9472 49.4225 46.95 49.4066 46.9538 49.3906L46.9688 49.3437L46.9772 49.295C46.9772 49.2791 46.9772 49.2622 46.9838 49.2462L46.9894 49.1975C46.9894 49.1816 46.9894 49.1647 46.9894 49.1487C46.9894 49.1328 46.9894 49.1159 46.9894 49.1C46.9894 49.0841 46.9894 49.0662 46.9894 49.0503V48.9519C46.9894 48.935 46.9894 48.9191 46.9894 48.9022C46.9894 48.8853 46.9894 48.8694 46.9894 48.8534C46.9894 48.8375 46.9894 48.8206 46.9894 48.8037L46.9838 48.755C46.9838 48.7391 46.9791 48.7231 46.9772 48.7072L46.9688 48.6584L46.9603 48.6097C46.9603 48.5937 46.9528 48.5778 46.95 48.5619C46.9472 48.5459 46.9425 48.53 46.9378 48.5141C46.9331 48.4981 46.9303 48.4831 46.9256 48.4672L46.9116 48.4203L46.8975 48.3734L46.8806 48.3275C46.876 48.3118 46.8704 48.2965 46.8638 48.2816C46.8581 48.2666 46.8525 48.2506 46.8459 48.2356L46.8263 48.1906C46.8197 48.1766 46.8131 48.1616 46.8056 48.1466C46.7981 48.1316 46.7925 48.1166 46.785 48.1025L46.7625 48.0594C46.755 48.0444 46.7466 48.0303 46.7391 48.0162L46.7138 47.9741C46.7063 47.96 46.6969 47.9459 46.6884 47.9319L46.6622 47.8906L46.6341 47.8503L46.6059 47.81C46.5956 47.7969 46.5863 47.7837 46.5759 47.7716L46.545 47.7331L46.5141 47.6947L46.4813 47.6581L46.4475 47.6216L46.4128 47.5869L46.3781 47.5522L46.3416 47.5184L46.305 47.4866L46.2675 47.4547L46.2291 47.4237L46.1897 47.3947L46.1494 47.3656C46.1363 47.3562 46.1231 47.3469 46.1091 47.3384L46.0678 47.3112L46.0313 47.2812C46.0172 47.2728 46.0031 47.2644 45.9881 47.2569C45.9731 47.2494 45.96 47.2409 45.9459 47.2334L45.9019 47.21L45.8578 47.1894L45.8138 47.1687L45.7688 47.1491L45.7228 47.1312L45.6769 47.1144L45.6309 47.0984L45.5841 47.0834L45.5372 47.0694L45.4903 47.0572L45.4425 47.0459L45.3947 47.0356L45.3459 47.0262L45.2981 47.0187L45.2494 47.0112L45.2006 47.0056H45.1519H45.1022H45.0534H44.9541H44.9053H44.8556H44.8069L44.7581 47.0112L44.7094 47.0187L44.6616 47.0262L44.6128 47.0356L44.565 47.0459L44.5172 47.0572L44.4703 47.0694L44.4225 47.0834L44.3766 47.0984L44.3297 47.1144L44.2838 47.1312L44.2388 47.1491L44.1938 47.1687L44.1497 47.1894L44.1056 47.21L44.0616 47.2334L44.0184 47.2569L43.9688 47.2812L43.9275 47.3066L43.8863 47.3337L43.845 47.3609L43.8056 47.39L43.7663 47.4191L43.7278 47.45L43.6903 47.4819L43.6538 47.5137L43.6172 47.5475L43.5825 47.5822L43.5478 47.6169L43.5141 47.6534L43.4813 47.69L43.4503 47.7284L43.4194 47.7669C43.4091 47.7791 43.3997 47.7922 43.3894 47.8053L43.3613 47.8456L43.3331 47.8859L43.3069 47.9272L43.2806 47.9694L43.2563 48.0116C43.2488 48.0256 43.2403 48.0397 43.2328 48.0547L43.2103 48.0978C43.2028 48.1119 43.1963 48.1269 43.1888 48.1419L43.1691 48.1859L43.1494 48.2309C43.1428 48.2459 43.1372 48.2619 43.1316 48.2769C43.125 48.2918 43.1193 48.3071 43.1147 48.3228L43.0978 48.3687L43.0838 48.4156L43.0697 48.4625C43.0697 48.4784 43.0613 48.4944 43.0575 48.5094C43.0538 48.5244 43.0491 48.5412 43.0453 48.5572C43.0416 48.5731 43.0388 48.5891 43.035 48.605L43.0266 48.6537L43.0181 48.7025C43.0181 48.7184 43.0134 48.7344 43.0116 48.7503L43.0059 48.7991C43.0059 48.8159 43.0059 48.8319 43.0059 48.8487C43.0059 48.8656 43.0059 48.8816 43.0059 48.8975C43.0059 48.9134 43.0059 48.9303 43.0059 48.9472V49.0456C43.0013 49.0625 43.0013 49.0822 43.0022 49.0991Z" fill="#FFC040"/>
<path d="M51 49.099V49.1477C51 49.1637 51 49.1805 51 49.1965L51.0056 49.2452C51.0056 49.2612 51.0056 49.278 51.0131 49.294C51.0206 49.3099 51.0178 49.3268 51.0206 49.3427C51.0234 49.3587 51.0263 49.3746 51.03 49.3905C51.0338 49.4065 51.0366 49.4224 51.0403 49.4383L51.0516 49.4862C51.0516 49.5021 51.06 49.518 51.0637 49.533L51.0778 49.5808C51.0825 49.5958 51.0872 49.6118 51.0928 49.6277C51.0984 49.6437 51.1031 49.6587 51.1088 49.6737L51.1256 49.7196L51.1434 49.7646L51.1631 49.8096C51.1697 49.8246 51.1762 49.8396 51.1837 49.8546C51.1912 49.8696 51.1978 49.8837 51.2044 49.8987C51.2109 49.9137 51.2194 49.9277 51.2278 49.9418C51.2362 49.9558 51.2428 49.9708 51.2512 49.9849C51.2597 49.999 51.2672 50.013 51.2756 50.0271L51.3009 50.0693L51.3281 50.1105L51.3553 50.1508L51.3844 50.1902L51.4134 50.2296L51.4444 50.268C51.4547 50.2812 51.465 50.2933 51.4762 50.3055L51.5081 50.343L51.5419 50.3787L51.5766 50.4143C51.5878 50.4255 51.6 50.4377 51.6122 50.448C51.6244 50.4583 51.6356 50.4715 51.6478 50.4818L51.6844 50.5146L51.7228 50.5465L51.7612 50.5765L51.7997 50.6065L51.84 50.6355L51.8803 50.6627L51.9216 50.689L51.9637 50.7152L52.0059 50.7396L52.0491 50.763L52.0922 50.7855L52.1362 50.8071L52.1803 50.8277L52.2253 50.8465L52.2712 50.8652L52.3172 50.8821L52.3631 50.898L52.41 50.913L52.4569 50.9262L52.5047 50.9393L52.5516 50.9505L52.5994 50.9608L52.6481 50.9702L52.6969 50.9777L52.7447 50.9843L52.7944 50.9899L52.8431 50.9946H52.8919H52.9416H53.04H53.0897H53.1384L53.1872 50.9899L53.2359 50.9843L53.2847 50.9777L53.3334 50.9702L53.3812 50.9608L53.4291 50.9505L53.4769 50.9393L53.5247 50.9262L53.5716 50.913L53.6184 50.898L53.6644 50.8821L53.7103 50.8652L53.7553 50.8465L53.8003 50.8277L53.8453 50.8071L53.8894 50.7855L53.9325 50.763L53.9756 50.7396L54.0178 50.7152L54.06 50.689L54.1012 50.6627L54.1416 50.6355L54.1809 50.6065L54.2203 50.5765L54.2588 50.5465L54.2963 50.5146L54.3338 50.4818L54.3694 50.448C54.3816 50.4377 54.3928 50.4255 54.405 50.4143C54.4172 50.403 54.4284 50.3908 54.4387 50.3787L54.4725 50.343L54.5053 50.3055C54.5156 50.2933 54.5269 50.2812 54.5372 50.268C54.5475 50.2549 54.5578 50.2427 54.5672 50.2296L54.5972 50.1902L54.6262 50.1508L54.6534 50.1105L54.6797 50.0693C54.6891 50.0552 54.6975 50.0412 54.7059 50.0271L54.7303 49.9849L54.7538 49.9418L54.7763 49.8987L54.7978 49.8546L54.8184 49.8096C54.825 49.7946 54.8316 49.7796 54.8372 49.7646L54.8559 49.7196L54.8728 49.6737C54.8784 49.6587 54.8831 49.6427 54.8888 49.6277C54.8944 49.6127 54.8991 49.5958 54.9038 49.5808C54.9084 49.5658 54.9131 49.549 54.9169 49.533C54.9206 49.5171 54.9263 49.5021 54.93 49.4862L54.9413 49.4383C54.9413 49.4224 54.9478 49.4065 54.9516 49.3905C54.9553 49.3746 54.9581 49.3587 54.9609 49.3427C54.9638 49.3268 54.9609 49.3099 54.9684 49.294C54.9759 49.278 54.9731 49.2612 54.975 49.2452L54.9806 49.1965C54.9806 49.1805 54.9806 49.1637 54.9853 49.1477V49.099C54.9853 49.0821 54.9853 49.0652 54.9853 49.0493C54.9853 49.0333 54.9853 49.0165 54.9853 48.9996C54.9853 48.9827 54.9853 48.9668 54.9853 48.9508C54.9853 48.9349 54.9853 48.918 54.9853 48.9012V48.8524C54.9853 48.8355 54.9853 48.8196 54.9806 48.8027L54.975 48.754C54.975 48.738 54.975 48.7221 54.9684 48.7062C54.9619 48.6902 54.9638 48.6733 54.9609 48.6574C54.9581 48.6415 54.9544 48.6255 54.9516 48.6087C54.9487 48.5918 54.945 48.5768 54.9413 48.5608L54.93 48.513C54.93 48.498 54.9216 48.4821 54.9169 48.4662C54.9122 48.4502 54.9084 48.4343 54.9038 48.4193C54.8991 48.4043 54.8934 48.3883 54.8888 48.3724C54.8841 48.3565 54.8784 48.3415 54.8728 48.3265L54.8559 48.2805C54.8494 48.2655 54.8437 48.2496 54.8372 48.2346C54.8306 48.2196 54.825 48.2046 54.8184 48.1896C54.8119 48.1746 54.8044 48.1605 54.7978 48.1455C54.7913 48.1305 54.7838 48.1155 54.7763 48.1015L54.7538 48.0583C54.7463 48.0433 54.7378 48.0293 54.7303 48.0152C54.7228 48.0012 54.7144 47.9862 54.7059 47.973C54.6975 47.9599 54.6891 47.9449 54.6797 47.9308L54.6534 47.8896L54.6262 47.8493L54.5972 47.809C54.5878 47.7958 54.5775 47.7827 54.5672 47.7705C54.5569 47.7583 54.5475 47.7443 54.5372 47.7321L54.5053 47.6937L54.4725 47.6571C54.4622 47.6449 54.45 47.6327 54.4387 47.6205L54.405 47.5858L54.3694 47.5512L54.3338 47.5174L54.2963 47.4855L54.2588 47.4537L54.2203 47.4227L54.1809 47.3937L54.1416 47.3646L54.1012 47.3374L54.06 47.3102L54.0178 47.2849L53.9756 47.2605L53.9325 47.2371L53.8894 47.2137L53.8453 47.193L53.8003 47.1724L53.7553 47.1527L53.7103 47.1349L53.6644 47.118L53.6184 47.1021L53.5716 47.0871L53.5247 47.073L53.4769 47.0608L53.4291 47.0496L53.3812 47.0393L53.3334 47.0299L53.2847 47.0224L53.2359 47.0149L53.1872 47.0093H53.1384H53.0897H53.04H52.9416H52.8919H52.8431H52.7944L52.7447 47.0149L52.6969 47.0224L52.6481 47.0299L52.5994 47.0393L52.5516 47.0496L52.5047 47.0608L52.4569 47.073L52.41 47.0871L52.3631 47.1021L52.3172 47.118L52.2712 47.1349L52.2253 47.1527L52.1803 47.1724L52.1362 47.193L52.0922 47.2137L52.0491 47.2371L52.0059 47.2605L51.9637 47.2849L51.9216 47.3102L51.8803 47.3374L51.84 47.3646L51.7997 47.3937L51.7612 47.4227L51.7228 47.4537L51.6844 47.4855L51.6478 47.5174L51.6122 47.5512C51.6 47.5624 51.5878 47.5737 51.5766 47.5858L51.5419 47.6205L51.5081 47.6571L51.4762 47.6937L51.4444 47.7321L51.4134 47.7705L51.3844 47.809C51.3741 47.8221 51.3647 47.8362 51.3553 47.8493L51.3281 47.8896C51.3188 47.9037 51.3094 47.9168 51.3009 47.9308L51.2756 47.973C51.2672 47.9862 51.2587 48.0012 51.2512 48.0152C51.2437 48.0293 51.2353 48.0433 51.2278 48.0583C51.2203 48.0733 51.2119 48.0865 51.2044 48.1015C51.1969 48.1165 51.1903 48.1305 51.1837 48.1455C51.1772 48.1605 51.1697 48.1755 51.1631 48.1896L51.1434 48.2346L51.1256 48.2805L51.1088 48.3265C51.1031 48.3415 51.0975 48.3574 51.0928 48.3724C51.0881 48.3874 51.0825 48.4033 51.0778 48.4193L51.0637 48.4662C51.0637 48.4821 51.0553 48.498 51.0516 48.513L51.0403 48.5608C51.0403 48.5768 51.0328 48.5927 51.03 48.6087C51.0272 48.6246 51.0234 48.6415 51.0206 48.6574C51.0178 48.6733 51.015 48.6893 51.0131 48.7062C51.0113 48.723 51.0084 48.738 51.0056 48.754L51 48.8027C51 48.8196 51 48.8355 51 48.8524V48.9012C51 48.918 51 48.934 51 48.9508C51 48.9677 51 48.9837 51 48.9996C51 49.0155 51 49.0333 51 49.0493C51 49.0652 51 49.0821 51 49.099Z" fill="#FFC040"/>
<path d="M35.0025 57.0988V57.1476C35.0025 57.1644 35.0025 57.1804 35.0072 57.1963L35.0128 57.246C35.0128 57.2619 35.0128 57.2779 35.0194 57.2938C35.0259 57.3097 35.0241 57.3266 35.0269 57.3426C35.0297 57.3585 35.0334 57.3744 35.0362 57.3913C35.0391 57.4082 35.0428 57.4232 35.0466 57.4391L35.0578 57.486C35.0578 57.5019 35.0662 57.5179 35.0709 57.5338C35.0756 57.5497 35.0794 57.5657 35.0841 57.5807C35.0887 57.5957 35.0944 57.6116 35.0991 57.6276C35.1037 57.6435 35.1094 57.6585 35.115 57.6735L35.1319 57.7194C35.1384 57.7344 35.1441 57.7504 35.1506 57.7654C35.1572 57.7804 35.1628 57.7954 35.1694 57.8104C35.1759 57.8254 35.1834 57.8394 35.19 57.8544C35.1966 57.8694 35.2041 57.8844 35.2116 57.8985L35.2341 57.9416C35.2416 57.9566 35.25 57.9707 35.2575 57.9847L35.2819 58.0269L35.3072 58.0691L35.3344 58.1104L35.3616 58.1507L35.3906 58.191C35.4 58.2041 35.4103 58.2172 35.4206 58.2294C35.4309 58.2416 35.4403 58.2557 35.4506 58.2679L35.4825 58.3063L35.5153 58.3429C35.5256 58.3551 35.5369 58.3672 35.5481 58.3785L35.5828 58.4141L35.6184 58.4488L35.6541 58.4826L35.6916 58.5144L35.7291 58.5463L35.7675 58.5772L35.8069 58.6063L35.8462 58.6354L35.8866 58.6626L35.9278 58.6897L35.97 58.7151L36.0122 58.7394L36.0553 58.7629C36.0693 58.7711 36.0837 58.7786 36.0984 58.7854L36.1425 58.8069L36.1875 58.8276L36.2325 58.8472L36.2775 58.8651L36.3234 58.8819L36.3694 58.8979L36.4162 58.9129L36.4631 58.9269L36.5109 58.9391L36.5587 58.9504L36.6066 58.9607L36.6544 58.9701L36.7031 58.9776L36.7519 58.9851L36.8006 58.9907H36.8494H36.8981H36.9478H37.0462H37.0959H37.1447H37.1934L37.2431 58.9851L37.2909 58.9776L37.3397 58.9701L37.3884 58.9607L37.4362 58.9504L37.4831 58.9391L37.5309 58.9269L37.5778 58.9129L37.6247 58.8979L37.6706 58.8819L37.7166 58.8651L37.7625 58.8472L37.8075 58.8276L37.8516 58.8069L37.8956 58.7854C37.9105 58.7788 37.9249 58.7713 37.9387 58.7629L37.9819 58.7394L38.0241 58.7151L38.0662 58.6897L38.1075 58.6626L38.1478 58.6354L38.1881 58.6063L38.2266 58.5772L38.265 58.5463L38.3034 58.5144L38.34 58.4826L38.3756 58.4488C38.3878 58.4376 38.4 58.4263 38.4112 58.4141C38.4225 58.4019 38.4347 58.3907 38.4459 58.3785L38.4797 58.3429L38.5116 58.3063L38.5434 58.2679L38.5744 58.2294L38.6034 58.191C38.6137 58.1779 38.6231 58.1638 38.6325 58.1507L38.6597 58.1104C38.6691 58.0963 38.6784 58.0832 38.6869 58.0691L38.7122 58.0269C38.7206 58.0129 38.7291 57.9988 38.7366 57.9847C38.7441 57.9707 38.7525 57.9566 38.76 57.9416C38.7675 57.9266 38.7759 57.9135 38.7834 57.8985C38.7909 57.8835 38.7975 57.8694 38.8041 57.8544C38.8106 57.8394 38.8181 57.8244 38.8247 57.8104L38.8444 57.7654L38.8622 57.7194L38.8791 57.6735C38.8847 57.6585 38.8903 57.6426 38.895 57.6276C38.8997 57.6126 38.9053 57.5966 38.91 57.5807L38.9241 57.5338C38.9241 57.5179 38.9325 57.5019 38.9362 57.486L38.9475 57.4391C38.9475 57.4232 38.955 57.4072 38.9578 57.3913C38.9606 57.3754 38.9644 57.3585 38.9672 57.3426C38.97 57.3266 38.9728 57.3107 38.9747 57.2938C38.9766 57.2769 38.9794 57.2619 38.9822 57.246L38.9878 57.1963C38.9878 57.1804 38.9878 57.1644 38.9878 57.1476V57.0988C38.9878 57.0819 38.9878 57.066 38.9878 57.0491C38.9878 57.0322 38.9878 57.0163 38.9878 57.0004C38.9878 56.9844 38.9878 56.9666 38.9878 56.9507C38.9878 56.9347 38.9878 56.9179 38.9878 56.901V56.8522C38.9878 56.8363 38.9878 56.8194 38.9878 56.8035L38.9822 56.7547C38.9822 56.7379 38.9775 56.7219 38.9747 56.706C38.9719 56.6901 38.9747 56.6732 38.9672 56.6572C38.9597 56.6413 38.9616 56.6254 38.9578 56.6094C38.9541 56.5935 38.9512 56.5776 38.9475 56.5616L38.9362 56.5138C38.9362 56.4979 38.9278 56.4819 38.9241 56.466L38.91 56.4191C38.91 56.4041 38.9006 56.3882 38.895 56.3722C38.8894 56.3563 38.8847 56.3413 38.8791 56.3263L38.8622 56.2804L38.8444 56.2354L38.8247 56.1904C38.8181 56.1754 38.8116 56.1604 38.8041 56.1454C38.7966 56.1304 38.79 56.1163 38.7834 56.1013C38.7769 56.0863 38.7684 56.0722 38.76 56.0582C38.7516 56.0441 38.745 56.0291 38.7366 56.0151C38.7281 56.001 38.7206 55.9869 38.7122 55.9729L38.6869 55.9307L38.6597 55.8894L38.6325 55.8491L38.6034 55.8097L38.5744 55.7704L38.5434 55.7319C38.5331 55.7188 38.5228 55.7066 38.5116 55.6944L38.4797 55.6569L38.4459 55.6213L38.4112 55.5857L38.3756 55.551L38.34 55.5182L38.3034 55.4854L38.265 55.4535L38.2266 55.4235L38.1881 55.3935L38.1478 55.3644L38.1075 55.3372L38.0662 55.3101L38.0241 55.2847L37.9819 55.2604L37.9387 55.2369L37.8956 55.2144L37.8516 55.1929L37.8075 55.1722L37.7625 55.1535L37.7166 55.1347L37.6706 55.1179L37.6247 55.1019L37.5778 55.0869L37.5309 55.0738L37.4831 55.0607L37.4362 55.0494L37.3884 55.0391L37.3397 55.0297L37.2909 55.0222L37.2431 55.0157L37.1934 55.0101L37.1447 55.0054H37.0959H37.0462H36.9478H36.8981H36.8494L36.8006 55.0101L36.7519 55.0157L36.7031 55.0222L36.6544 55.0297L36.6066 55.0391L36.5587 55.0494L36.5109 55.0607L36.4631 55.0738L36.4162 55.0869L36.3694 55.1019L36.3234 55.1179L36.2775 55.1347L36.2325 55.1535L36.1875 55.1722L36.1425 55.1929L36.0984 55.2144L36.0553 55.2369L36.0122 55.2604L35.97 55.2847L35.9278 55.3101L35.8866 55.3372L35.8462 55.3644L35.8069 55.3935L35.7675 55.4235L35.7291 55.4535L35.6916 55.4854L35.6541 55.5182L35.6184 55.551L35.5828 55.5857L35.5481 55.6213C35.5369 55.6335 35.5256 55.6447 35.5153 55.6569L35.4825 55.6944C35.4722 55.7066 35.4609 55.7188 35.4506 55.7319C35.4403 55.7451 35.43 55.7572 35.4206 55.7704L35.3906 55.8097L35.3616 55.8491L35.3344 55.8894C35.325 55.9035 35.3166 55.9176 35.3072 55.9307L35.2819 55.9729L35.2575 56.0151C35.25 56.0291 35.2416 56.0432 35.2341 56.0582L35.2116 56.1013L35.19 56.1454L35.1694 56.1904C35.1628 56.2044 35.1562 56.2204 35.1506 56.2354L35.1319 56.2804L35.115 56.3263C35.1094 56.3413 35.1047 56.3572 35.0991 56.3722C35.0934 56.3872 35.0887 56.4041 35.0841 56.4191C35.0794 56.4341 35.0747 56.451 35.0709 56.466C35.0672 56.481 35.0616 56.4979 35.0578 56.5138L35.0466 56.5616C35.0466 56.5776 35.04 56.5935 35.0362 56.6094C35.0325 56.6254 35.0297 56.6413 35.0269 56.6572C35.0241 56.6732 35.0222 56.6901 35.0194 56.706C35.0166 56.7219 35.0194 56.7379 35.0128 56.7547L35.0072 56.8035C35.0072 56.8194 35.0072 56.8363 35.0025 56.8522V56.901C35.0025 56.9179 35.0025 56.9347 35.0025 56.9507C35.0025 56.9666 35.0025 56.9835 35.0025 57.0004C35.0025 57.0172 35.0025 57.0332 35.0025 57.0491C35.0025 57.0651 35.0016 57.0819 35.0025 57.0988Z" fill="#FFC040"/>
<path d="M43.0022 57.0988C43.0022 57.1147 43.0022 57.1316 43.0022 57.1475C43.0022 57.1635 43.0022 57.1803 43.0022 57.1963L43.0079 57.246C43.0079 57.2619 43.0079 57.2778 43.0144 57.2938L43.0229 57.3425L43.0313 57.3913C43.0313 57.4072 43.0388 57.4231 43.0416 57.4391C43.0444 57.455 43.0491 57.471 43.0538 57.486C43.0585 57.501 43.0613 57.5178 43.066 57.5338L43.08 57.5806L43.0941 57.6275L43.111 57.6735C43.1156 57.6891 43.1213 57.7045 43.1279 57.7194C43.1335 57.7344 43.1391 57.7503 43.1457 57.7653L43.1654 57.8103L43.185 57.8544C43.1925 57.8694 43.1991 57.8844 43.2066 57.8985L43.2291 57.9416C43.2366 57.9566 43.245 57.9706 43.2525 57.9847C43.26 57.9988 43.2694 58.0128 43.2769 58.0269L43.3032 58.0691L43.3294 58.1103L43.3575 58.1506L43.3857 58.191C43.396 58.2041 43.4054 58.2172 43.4157 58.2294L43.4466 58.2678L43.4775 58.3063L43.5104 58.3428L43.5441 58.3785C43.5554 58.3906 43.5666 58.4028 43.5788 58.4141L43.6135 58.4488L43.65 58.4825L43.6866 58.5144L43.7241 58.5463L43.7625 58.5772L43.8019 58.6063L43.8413 58.6353L43.8825 58.6625L43.9238 58.6897L43.965 58.715L44.0072 58.7394L44.0504 58.7628C44.0646 58.7711 44.0794 58.7786 44.0944 58.7853L44.1385 58.8069L44.1825 58.8275L44.2275 58.8472L44.2725 58.865L44.3185 58.8819L44.3654 58.8978L44.4113 58.9128L44.4591 58.9269L44.506 58.9391L44.5538 58.9503L44.6016 58.9606L44.6504 58.97L44.6982 58.9775L44.7469 58.985L44.7957 58.9906H44.8444H44.8941H44.9429H45.0422H45.091H45.1397H45.1894L45.2382 58.985L45.2869 58.9775L45.3347 58.97L45.3835 58.9606L45.4313 58.9503L45.4791 58.9391L45.526 58.9269L45.5729 58.9128L45.6197 58.8978L45.6657 58.8819L45.7116 58.865L45.7575 58.8472L45.8025 58.8275L45.8466 58.8069L45.8907 58.7853C45.9057 58.7786 45.9204 58.7711 45.9347 58.7628C45.9488 58.7553 45.9638 58.7478 45.9769 58.7394C45.99 58.731 46.006 58.7235 46.02 58.715L46.0613 58.6897L46.1025 58.6625C46.1166 58.6541 46.1297 58.6447 46.1429 58.6353L46.1832 58.6063L46.2225 58.5772L46.261 58.5463L46.2985 58.5144L46.335 58.4825L46.3716 58.4488L46.4063 58.4141C46.4185 58.4028 46.4297 58.3906 46.441 58.3785L46.4747 58.3428L46.5075 58.3063L46.5385 58.2678L46.5694 58.2294C46.5797 58.2172 46.5891 58.2041 46.5994 58.191L46.6275 58.1506L46.6557 58.1103L46.6819 58.0691C46.6904 58.055 46.6997 58.041 46.7072 58.0269L46.7325 57.9847C46.74 57.9706 46.7485 57.9566 46.756 57.9416L46.7785 57.8985C46.786 57.8844 46.7925 57.8694 46.7991 57.8544C46.8057 57.8394 46.8132 57.8244 46.8197 57.8103L46.8394 57.7653C46.846 57.7503 46.8516 57.7344 46.8572 57.7194C46.8638 57.7045 46.8695 57.6891 46.8741 57.6735L46.891 57.6275L46.905 57.5806L46.9191 57.5338C46.9238 57.5178 46.9275 57.5019 46.9313 57.486C46.935 57.47 46.9397 57.455 46.9435 57.4391C46.9472 57.4231 46.95 57.4072 46.9538 57.3913L46.9622 57.3425L46.9707 57.2938C46.9707 57.2778 46.9707 57.2619 46.9772 57.246L46.9829 57.1963C46.9829 57.1803 46.9829 57.1644 46.9829 57.1475C46.9829 57.1306 46.9829 57.1147 46.9829 57.0988C46.9829 57.0828 46.9829 57.066 46.9829 57.0491V56.9506C46.9829 56.9347 46.9829 56.9178 46.9829 56.901C46.9829 56.8841 46.9829 56.8691 46.9829 56.8522C46.9829 56.8353 46.9829 56.8194 46.9829 56.8035L46.9772 56.7547C46.9772 56.7378 46.9725 56.7219 46.9707 56.706L46.9688 56.6563L46.9604 56.6085C46.9604 56.5925 46.9529 56.5766 46.95 56.5606C46.9472 56.5447 46.9425 56.5288 46.9379 56.5128C46.9332 56.4969 46.9304 56.481 46.9257 56.465L46.9116 56.4181L46.8975 56.3713L46.8807 56.3253C46.8759 56.3097 46.8702 56.2944 46.8638 56.2794C46.8582 56.2644 46.8525 56.2494 46.846 56.2344L46.8263 56.1894C46.8197 56.1744 46.8132 56.1594 46.8057 56.1444C46.7982 56.1294 46.7925 56.1153 46.785 56.1003L46.7625 56.0572C46.755 56.0422 46.7466 56.0281 46.7391 56.0141L46.7138 55.9719C46.7063 55.9578 46.6969 55.9438 46.6885 55.9297L46.6622 55.8885L46.6341 55.8481L46.606 55.8088L46.576 55.7694L46.545 55.731L46.5141 55.6935L46.4813 55.656L46.4475 55.6203L46.4129 55.5847L46.3782 55.55L46.3416 55.5172L46.305 55.4844L46.2675 55.4525L46.2291 55.4225L46.1897 55.3925L46.1494 55.3635L46.1091 55.3363L46.0679 55.3091L46.0266 55.2838C46.0125 55.2753 45.9985 55.2669 45.9835 55.2594L45.9413 55.236L45.8972 55.2135L45.8532 55.1919L45.8091 55.1713L45.7641 55.1525L45.7182 55.1338L45.6722 55.1169L45.6263 55.101L45.5794 55.086L45.5325 55.0728L45.4857 55.0597L45.4379 55.0485L45.39 55.0381L45.3413 55.0288L45.2935 55.0213L45.2447 55.0147L45.196 55.0091L45.1463 55.0044H45.0975H45.0488H44.9494H44.9007H44.851L44.8022 55.0091L44.7535 55.0147L44.7047 55.0213L44.6569 55.0288L44.6082 55.0381L44.5604 55.0485L44.5125 55.0597L44.4657 55.0728L44.4179 55.086L44.3719 55.101L44.325 55.1169L44.2791 55.1338L44.2341 55.1525L44.1891 55.1713L44.145 55.1919L44.101 55.2135L44.0569 55.236L44.0138 55.2594L43.9716 55.2838L43.9304 55.3091L43.8891 55.3363L43.8479 55.3635L43.8085 55.3925L43.7691 55.4225L43.7307 55.4525L43.6932 55.4844L43.6566 55.5172L43.62 55.55L43.5854 55.5847L43.5507 55.6203L43.5169 55.656L43.4841 55.6935L43.4532 55.731L43.4222 55.7694L43.3922 55.8088L43.3641 55.8481L43.336 55.8885L43.3097 55.9297L43.2835 55.9719C43.276 55.986 43.2675 56 43.2591 56.0141C43.2507 56.0281 43.2432 56.0422 43.2357 56.0572L43.2132 56.1003C43.2057 56.1153 43.1991 56.1303 43.1916 56.1444L43.1719 56.1894L43.1522 56.2344C43.1457 56.2494 43.14 56.2644 43.1344 56.2794C43.128 56.2944 43.1223 56.3097 43.1175 56.3253L43.1007 56.3713L43.0866 56.4181L43.0725 56.465C43.0725 56.481 43.0641 56.4969 43.0604 56.5128C43.0566 56.5288 43.0519 56.5447 43.0482 56.5606C43.0444 56.5766 43.0416 56.5925 43.0379 56.6085L43.0313 56.6563L43.0229 56.705C43.0229 56.721 43.0182 56.7369 43.0163 56.7538L43.0107 56.8025C43.0107 56.8185 43.0107 56.8353 43.0107 56.8513C43.0107 56.8672 43.0107 56.8841 43.0107 56.9C43.0107 56.916 43.0107 56.9338 43.0107 56.9497V57.0481C43.0013 57.066 43.0013 57.0819 43.0022 57.0988Z" fill="#FFC040"/>
</g>
<defs>
<filter id="filter0_d_834_3541" x="0" y="0" width="90" height="102" filterUnits="userSpaceOnUse" color-interpolation-filters="sRGB">
<feFlood flood-opacity="0" result="BackgroundImageFix"/>
<feColorMatrix in="SourceAlpha" type="matrix" values="0 0 0 0 0 0 0 0 0 0 0 0 0 0 0 0 0 0 127 0" result="hardAlpha"/>
<feOffset dy="4"/>
<feGaussianBlur stdDeviation="2"/>
<feComposite in2="hardAlpha" operator="out"/>
<feColorMatrix type="matrix" values="0 0 0 0 0 0 0 0 0 0 0 0 0 0 0 0 0 0 0.25 0"/>
<feBlend mode="normal" in2="BackgroundImageFix" result="effect1_dropShadow_834_3541"/>
<feBlend mode="normal" in="SourceGraphic" in2="effect1_dropShadow_834_3541" result="shape"/>
</filter>
</defs>
</svg>
