<svg width="116" height="116" viewBox="0 0 116 116" fill="none" xmlns="http://www.w3.org/2000/svg">
<path d="M34.44 26.72C33.757 26.72 33.2 27.277 33.2 27.96V39.12H82.7999V27.96C82.7999 27.277 82.2478 26.72 81.56 26.72H34.44ZM60.48 30.44C61.8507 30.44 62.96 31.5492 62.96 32.92C62.96 34.2908 61.8507 35.4 60.48 35.4C59.1092 35.4 58 34.2908 58 32.92C58 31.5492 59.1092 30.44 60.48 30.44ZM67.92 30.44C69.2907 30.44 70.4 31.5492 70.4 32.92C70.4 34.2908 69.2907 35.4 67.92 35.4C66.5492 35.4 65.44 34.2908 65.44 32.92C65.44 31.5492 66.5492 30.44 67.92 30.44ZM75.36 30.44C76.7307 30.44 77.84 31.5492 77.84 32.92C77.84 34.2908 76.7307 35.4 75.36 35.4C73.9892 35.4 72.88 34.2908 72.88 32.92C72.88 31.5492 73.9892 30.44 75.36 30.44ZM33.2 41.6V80.04C33.2 80.7278 33.757 81.28 34.44 81.28H81.56C82.2478 81.28 82.7999 80.7278 82.7999 80.04V41.6H33.2ZM60.48 46.56H62.96V50.4737C65.0912 51.0308 66.68 52.944 66.68 55.24V65.16C66.68 67.4608 65.0912 69.3692 62.96 69.9262V73.84H60.48V46.56ZM70.4 46.56H72.88V50.4737C75.0112 51.0308 76.6 52.944 76.6 55.24V65.16C76.6 67.4608 75.0112 69.3692 72.88 69.9262V73.84H70.4V46.56ZM39.4 54H54.28V58.96C54.28 62.6315 51.5868 65.6879 48.08 66.2837V71.36H51.8V73.84H41.88V71.36H45.6V66.2837C42.0931 65.6879 39.4 62.6315 39.4 58.96V54Z" fill="#3D3781"/>
<g filter="url(#filter0_d_822_2656)">
<path d="M58 0C43.6783 -1.70784e-07 29.9432 5.68927 19.8162 15.8162C9.68927 25.9432 4 39.6783 4 54C4 68.3217 9.68927 82.0568 19.8162 92.1838C29.9432 102.311 43.6783 108 58 108V95.3128C47.0432 95.3128 36.5351 90.9602 28.7875 83.2125C21.0398 75.4649 16.6872 64.9568 16.6872 54C16.6872 43.0432 21.0398 32.5351 28.7875 24.7875C36.5351 17.0398 47.0432 12.6872 58 12.6872V0Z" fill="#FFC040"/>
<path d="M58 108C65.0914 108 72.1133 106.603 78.6649 103.889C85.2165 101.176 91.1694 97.1981 96.1838 92.1838C101.198 87.1694 105.176 81.2165 107.889 74.6649C110.603 68.1133 112 61.0914 112 54C112 46.9086 110.603 39.8867 107.889 33.3351C105.176 26.7835 101.198 20.8306 96.1838 15.8162C91.1694 10.8019 85.2165 6.82426 78.6649 4.1105C72.1133 1.39675 65.0914 -3.09974e-07 58 0L58 12.6872C63.4253 12.6872 68.7974 13.7558 73.8097 15.832C78.822 17.9082 83.3763 20.9512 87.2125 24.7875C91.0488 28.6237 94.0918 33.178 96.168 38.1903C98.2442 43.2026 99.3128 48.5747 99.3128 54C99.3128 59.4253 98.2442 64.7974 96.168 69.8097C94.0918 74.822 91.0488 79.3763 87.2125 83.2125C83.3763 87.0488 78.822 90.0918 73.8097 92.168C68.7974 94.2442 63.4253 95.3128 58 95.3128L58 108Z" fill="#BDBDBD"/>
</g>
<defs>
<filter id="filter0_d_822_2656" x="0" y="0" width="116" height="116" filterUnits="userSpaceOnUse" color-interpolation-filters="sRGB">
<feFlood flood-opacity="0" result="BackgroundImageFix"/>
<feColorMatrix in="SourceAlpha" type="matrix" values="0 0 0 0 0 0 0 0 0 0 0 0 0 0 0 0 0 0 127 0" result="hardAlpha"/>
<feOffset dy="4"/>
<feGaussianBlur stdDeviation="2"/>
<feComposite in2="hardAlpha" operator="out"/>
<feColorMatrix type="matrix" values="0 0 0 0 0 0 0 0 0 0 0 0 0 0 0 0 0 0 0.25 0"/>
<feBlend mode="normal" in2="BackgroundImageFix" result="effect1_dropShadow_822_2656"/>
<feBlend mode="normal" in="SourceGraphic" in2="effect1_dropShadow_822_2656" result="shape"/>
</filter>
</defs>
</svg>
