<svg width="116" height="116" viewBox="0 0 116 116" fill="none" xmlns="http://www.w3.org/2000/svg">
<path d="M44.75 47.8V50.65H45.5417H49.5H50.2917H54.25H55.0417V47.8H44.75Z" fill="#3D3781"/>
<path d="M54.25 56.35H50.2917V52.55H49.5V56.35H45.5417V52.55H44.75V57.3H55.0417V52.55H54.25V56.35Z" fill="#3D3781"/>
<path d="M58.2083 25H43.6108C41.6197 25 40 26.9437 40 29.3329V79.2174C40 80.7517 41.0403 82 42.3196 82H58.2083V25ZM56.625 52.55V57.3V62.05H43.1667V57.3V52.55V50.65V45.9H56.625V50.65V52.55Z" fill="#3D3781"/>
<path d="M55.0417 59.2H44.75V60.15H55.0417V59.2Z" fill="#3D3781"/>
<path d="M73.2499 47.8H62.9583V60.15H73.2499V47.8ZM71.6666 51.6H64.5416C64.1038 51.6 63.7499 51.1754 63.7499 50.65C63.7499 50.1247 64.1038 49.7 64.5416 49.7H71.6666C72.1044 49.7 72.4583 50.1247 72.4583 50.65C72.4583 51.1754 72.1044 51.6 71.6666 51.6Z" fill="#3D3781"/>
<path d="M74.3608 25H59.7917V82H75.6805C76.959 82 78.0001 80.7517 78.0001 79.2165V29.313C77.9597 26.9351 76.3273 25 74.3608 25ZM67.7084 31.65H69.2917C69.7295 31.65 70.0834 32.0746 70.0834 32.6C70.0834 33.1253 69.7295 33.55 69.2917 33.55H67.7084C67.2706 33.55 66.9167 33.1253 66.9167 32.6C66.9167 32.0746 67.2706 31.65 67.7084 31.65ZM74.8334 62.05H61.3751V45.9H74.8334V62.05Z" fill="#3D3781"/>
<g filter="url(#filter0_d_822_2626)">
<path d="M58 0C43.6783 -1.70784e-07 29.9432 5.68927 19.8162 15.8162C9.68927 25.9432 4 39.6783 4 54C4 68.3217 9.68927 82.0568 19.8162 92.1838C29.9432 102.311 43.6783 108 58 108V95.3128C47.0432 95.3128 36.5351 90.9602 28.7875 83.2125C21.0398 75.4649 16.6872 64.9568 16.6872 54C16.6872 43.0432 21.0398 32.5351 28.7875 24.7875C36.5351 17.0398 47.0432 12.6872 58 12.6872V0Z" fill="#FFC040"/>
<path d="M58 108C65.0914 108 72.1133 106.603 78.6649 103.889C85.2165 101.176 91.1694 97.1981 96.1838 92.1838C101.198 87.1694 105.176 81.2165 107.889 74.6649C110.603 68.1133 112 61.0914 112 54C112 46.9086 110.603 39.8867 107.889 33.3351C105.176 26.7835 101.198 20.8306 96.1838 15.8162C91.1694 10.8019 85.2165 6.82426 78.6649 4.1105C72.1133 1.39675 65.0914 -3.09974e-07 58 0L58 12.6872C63.4253 12.6872 68.7974 13.7558 73.8097 15.832C78.822 17.9082 83.3763 20.9512 87.2125 24.7875C91.0488 28.6237 94.0918 33.178 96.168 38.1903C98.2442 43.2026 99.3128 48.5747 99.3128 54C99.3128 59.4253 98.2442 64.7974 96.168 69.8097C94.0918 74.822 91.0488 79.3763 87.2125 83.2125C83.3763 87.0488 78.822 90.0918 73.8097 92.168C68.7974 94.2442 63.4253 95.3128 58 95.3128L58 108Z" fill="#BDBDBD"/>
</g>
<defs>
<filter id="filter0_d_822_2626" x="0" y="0" width="116" height="116" filterUnits="userSpaceOnUse" color-interpolation-filters="sRGB">
<feFlood flood-opacity="0" result="BackgroundImageFix"/>
<feColorMatrix in="SourceAlpha" type="matrix" values="0 0 0 0 0 0 0 0 0 0 0 0 0 0 0 0 0 0 127 0" result="hardAlpha"/>
<feOffset dy="4"/>
<feGaussianBlur stdDeviation="2"/>
<feComposite in2="hardAlpha" operator="out"/>
<feColorMatrix type="matrix" values="0 0 0 0 0 0 0 0 0 0 0 0 0 0 0 0 0 0 0.25 0"/>
<feBlend mode="normal" in2="BackgroundImageFix" result="effect1_dropShadow_822_2626"/>
<feBlend mode="normal" in="SourceGraphic" in2="effect1_dropShadow_822_2626" result="shape"/>
</filter>
</defs>
</svg>
