<svg width="218" height="218" viewBox="0 0 218 218" fill="none" xmlns="http://www.w3.org/2000/svg">
<g clip-path="url(#clip0_822_1581)" filter="url(#filter0_d_822_1581)">
<path d="M105.719 25.5544L23.6875 107.579V210H194.312V114.142L105.719 25.5544Z" fill="#D8D8F0"/>
<path d="M56.5 137.812H102.438V210H56.5V137.812Z" fill="#3A3A3A"/>
<path d="M115.562 131.25H135.25V150.938H115.562V131.25ZM141.812 131.25H161.5V150.938H141.812V131.25ZM141.812 105H161.5V124.688H141.812V105ZM115.562 105H135.25V124.688H115.562V105Z" fill="#FFC040"/>
<path d="M115.562 105H135.25V111.562H115.562V105ZM141.812 105H161.5V111.562H141.812V105ZM115.562 131.25H135.25V137.812H115.562V131.25ZM141.812 131.25H161.5V137.812H141.812V131.25Z" fill="#3A3A3A"/>
<path d="M105.719 13.125L23.6875 98.4375V118.125L105.719 36.0938L194.312 124.688V105L105.719 13.125Z" fill="#3A3A3A"/>
<path d="M211.657 103.642L114.998 6.98252L110.358 2.34283C109.75 1.73288 109.026 1.24897 108.23 0.918809C107.434 0.588645 106.581 0.418701 105.719 0.418701C104.857 0.418701 104.003 0.588645 103.207 0.918809C102.411 1.24897 101.688 1.73288 101.079 2.34283L96.4394 6.98252L6.34283 97.0791C5.73288 97.688 5.24897 98.4112 4.91881 99.2073C4.58865 100.003 4.4187 100.857 4.4187 101.719C4.4187 102.581 4.58865 103.434 4.91881 104.23C5.24897 105.026 5.73288 105.75 6.34283 106.358L10.9825 110.998C11.5914 111.608 12.3147 112.092 13.1108 112.422C13.9069 112.752 14.7603 112.922 15.6222 112.922C16.4841 112.922 17.3375 112.752 18.1336 112.422C18.9298 112.092 19.653 111.608 20.2619 110.998L105.719 25.5544L197.732 117.567C198.341 118.177 199.064 118.661 199.86 118.991C200.656 119.321 201.509 119.491 202.371 119.491C203.233 119.491 204.087 119.321 204.883 118.991C205.679 118.661 206.402 118.177 207.011 117.567L211.651 112.928C212.882 111.697 213.575 110.027 213.576 108.286C213.577 106.545 212.887 104.874 211.657 103.642Z" fill="#3D3781"/>
<path d="M52.8578 210C55.2178 206.027 56.4751 201.496 56.5 196.875C56.5 189.913 53.7344 183.236 48.8116 178.313C43.8887 173.391 37.2119 170.625 30.25 170.625C23.2881 170.625 16.6113 173.391 11.6884 178.313C6.76562 183.236 4 189.913 4 196.875C4 201.679 5.38469 206.122 7.64219 210H52.8578ZM187.75 170.625C182.719 170.631 177.796 172.085 173.569 174.814C169.342 177.543 165.991 181.431 163.915 186.014C161.148 184.548 158.069 183.771 154.938 183.75C149.716 183.75 144.708 185.824 141.016 189.516C137.324 193.208 135.25 198.216 135.25 203.438C135.25 205.754 135.723 207.939 136.458 210H210.364C212.719 206.025 213.974 201.495 214 196.875C214 189.913 211.234 183.236 206.312 178.313C201.389 173.391 194.712 170.625 187.75 170.625Z" fill="#3AAD73"/>
<path d="M163.915 186.014C161.148 184.548 158.069 183.771 154.938 183.75C149.716 183.75 144.708 185.824 141.016 189.516C137.324 193.208 135.25 198.216 135.25 203.438C135.25 205.754 135.723 207.939 136.458 210H165.142C162.782 206.027 161.525 201.496 161.5 196.875C161.5 192.99 162.399 189.335 163.915 186.014Z" fill="#3D3781"/>
</g>
<defs>
<filter id="filter0_d_822_1581" x="0" y="0" width="218" height="218" filterUnits="userSpaceOnUse" color-interpolation-filters="sRGB">
<feFlood flood-opacity="0" result="BackgroundImageFix"/>
<feColorMatrix in="SourceAlpha" type="matrix" values="0 0 0 0 0 0 0 0 0 0 0 0 0 0 0 0 0 0 127 0" result="hardAlpha"/>
<feOffset dy="4"/>
<feGaussianBlur stdDeviation="2"/>
<feComposite in2="hardAlpha" operator="out"/>
<feColorMatrix type="matrix" values="0 0 0 0 0 0 0 0 0 0 0 0 0 0 0 0 0 0 0.25 0"/>
<feBlend mode="normal" in2="BackgroundImageFix" result="effect1_dropShadow_822_1581"/>
<feBlend mode="normal" in="SourceGraphic" in2="effect1_dropShadow_822_1581" result="shape"/>
</filter>
<clipPath id="clip0_822_1581">
<rect width="210" height="210" fill="white" transform="translate(4)"/>
</clipPath>
</defs>
</svg>
