<svg width="34" height="34" viewBox="0 0 34 34" fill="none" xmlns="http://www.w3.org/2000/svg">
<path d="M17.0013 12.7502C15.8742 12.7502 14.7932 13.1979 13.9961 13.995C13.1991 14.792 12.7513 15.873 12.7513 17.0002C12.7513 18.1273 13.1991 19.2083 13.9961 20.0054C14.7932 20.8024 15.8742 21.2502 17.0013 21.2502C18.1285 21.2502 19.2095 20.8024 20.0065 20.0054C20.8036 19.2083 21.2513 18.1273 21.2513 17.0002C21.2513 15.873 20.8036 14.792 20.0065 13.995C19.2095 13.1979 18.1285 12.7502 17.0013 12.7502ZM17.0013 9.91683C18.88 9.91683 20.6816 10.6631 22.01 11.9915C23.3384 13.3199 24.0847 15.1215 24.0847 17.0002C24.0847 18.8788 23.3384 20.6805 22.01 22.0088C20.6816 23.3372 18.88 24.0835 17.0013 24.0835C15.1227 24.0835 13.321 23.3372 11.9927 22.0088C10.6643 20.6805 9.918 18.8788 9.918 17.0002C9.918 15.1215 10.6643 13.3199 11.9927 11.9915C13.321 10.6631 15.1227 9.91683 17.0013 9.91683ZM26.2097 9.56266C26.2097 10.0323 26.0231 10.4827 25.691 10.8148C25.3589 11.1469 24.9085 11.3335 24.4388 11.3335C23.9692 11.3335 23.5188 11.1469 23.1867 10.8148C22.8546 10.4827 22.668 10.0323 22.668 9.56266C22.668 9.09301 22.8546 8.64259 23.1867 8.31049C23.5188 7.9784 23.9692 7.79183 24.4388 7.79183C24.9085 7.79183 25.3589 7.9784 25.691 8.31049C26.0231 8.64259 26.2097 9.09301 26.2097 9.56266ZM17.0013 5.66683C13.4965 5.66683 12.9242 5.67675 11.2936 5.749C10.1829 5.80141 9.43775 5.95016 8.74642 6.21933C8.16787 6.43174 7.64484 6.7722 7.21642 7.21525C6.77301 7.64364 6.43209 8.16666 6.21909 8.74525C5.94992 9.43941 5.80117 10.1832 5.75017 11.2924C5.6765 12.8564 5.66659 13.4032 5.66659 17.0002C5.66659 20.5064 5.6765 21.0773 5.74875 22.7079C5.80117 23.8172 5.94992 24.5637 6.21767 25.2537C6.4585 25.8699 6.74184 26.3133 7.21217 26.7837C7.68959 27.2597 8.133 27.5444 8.74217 27.7796C9.442 28.0502 10.1872 28.2003 11.2922 28.2513C12.8562 28.325 13.403 28.3335 16.9999 28.3335C20.5062 28.3335 21.0771 28.3236 22.7077 28.2513C23.8155 28.1989 24.5607 28.0502 25.2534 27.7824C25.8314 27.569 26.3543 27.2286 26.7834 26.7865C27.2608 26.3105 27.5456 25.8671 27.7808 25.2565C28.0499 24.5595 28.2001 23.8143 28.2511 22.7065C28.3248 21.1439 28.3333 20.5957 28.3333 17.0002C28.3333 13.4953 28.3233 12.923 28.2511 11.2924C28.1987 10.1846 28.0485 9.43658 27.7808 8.74525C27.5672 8.16727 27.2269 7.64447 26.7848 7.21525C26.3566 6.77161 25.8336 6.43065 25.2548 6.21791C24.5607 5.94875 23.8155 5.8 22.7077 5.749C21.1451 5.67533 20.5983 5.66683 16.9999 5.66683M16.9999 2.8335C20.849 2.8335 21.3293 2.84766 22.8408 2.9185C24.3482 2.98933 25.3767 3.22591 26.2791 3.57725C27.2141 3.93708 28.0018 4.42441 28.7894 5.21066C29.5098 5.91885 30.0672 6.7755 30.4228 7.721C30.7728 8.62341 31.0108 9.65191 31.0816 11.1607C31.1482 12.6708 31.1666 13.1511 31.1666 17.0002C31.1666 20.8492 31.1524 21.3295 31.0816 22.8397C31.0108 24.3484 30.7728 25.3755 30.4228 26.2793C30.0682 27.2253 29.5106 28.0822 28.7894 28.7897C28.081 29.5098 27.2244 30.0671 26.2791 30.4231C25.3767 30.773 24.3482 31.011 22.8408 31.0818C21.3293 31.1484 20.849 31.1668 16.9999 31.1668C13.1508 31.1668 12.6706 31.1527 11.159 31.0818C9.65167 31.011 8.62459 30.773 7.72075 30.4231C6.77488 30.0682 5.91808 29.5107 5.21042 28.7897C4.48995 28.0816 3.93253 27.2249 3.577 26.2793C3.22567 25.3769 2.98909 24.3484 2.91825 22.8397C2.85025 21.3295 2.83325 20.8492 2.83325 17.0002C2.83325 13.1511 2.84742 12.6708 2.91825 11.1607C2.98909 9.65191 3.22567 8.62483 3.577 7.721C3.9315 6.77492 4.48906 5.91803 5.21042 5.21066C5.91829 4.48991 6.77503 3.93245 7.72075 3.57725C8.62317 3.22591 9.65025 2.98933 11.159 2.9185C12.672 2.85191 13.1523 2.8335 17.0013 2.8335" fill="#D8D8F0"/>
</svg>
