<svg width="132" height="74" viewBox="0 0 132 74" fill="none" xmlns="http://www.w3.org/2000/svg">
<path d="M67.7971 11.7278C69.7183 11.4932 71.4541 12.0265 73.0043 13.3278C73.1529 13.4558 73.2909 13.5838 73.4182 13.7118C73.7365 14.0318 73.9273 14.2451 73.9907 14.3518C75.3677 16.1224 75.8795 18.1064 75.5262 20.3037C75.5042 20.4104 75.4823 20.517 75.4604 20.6237C75.0656 22.6077 74.0012 24.1436 72.2672 25.2316C71.625 25.637 70.93 25.9356 70.1823 26.1276C69.6909 26.2556 69.1359 26.3196 68.5173 26.3196C67.8773 26.3196 67.3123 26.2556 66.8223 26.1276C64.8198 25.6156 63.3221 24.4636 62.3292 22.6717C61.7378 21.5837 61.4456 20.4104 61.4525 19.1517C61.461 17.5944 61.8846 16.1971 62.7234 14.9598C63.9711 13.0611 65.6623 11.9838 67.7971 11.7278ZM69.101 13.1998C67.9073 13.0291 66.903 13.3278 66.0881 14.0958C65.445 14.6718 65.077 15.6424 64.9842 17.0077C64.9624 17.0931 64.9512 17.1891 64.9506 17.2957C64.8593 18.3837 64.863 19.6637 64.9616 21.1357C65.0426 21.925 65.1887 22.5223 65.3998 22.9277C65.8424 23.909 66.6606 24.4956 67.8542 24.6876C68.259 24.773 68.675 24.7836 69.102 24.7196C70.2977 24.5276 71.1437 23.9303 71.6398 22.9277C71.8554 22.5223 72.008 21.925 72.0976 21.1357C72.2096 20.1544 72.227 18.9277 72.1497 17.4557C72.1501 17.3917 72.1504 17.3384 72.1506 17.2957C72.0733 15.8238 71.7376 14.7891 71.1436 14.1918C71.1224 14.1705 71.0905 14.1385 71.0481 14.0958C70.5176 13.5838 69.8685 13.2851 69.101 13.1998ZM79.8593 12.0478C81.652 11.9198 82.5057 11.8558 82.4204 11.8558H82.5484L82.5424 12.9438L82.5365 14.0318L82.8906 13.6478C83.7701 12.7518 84.8078 12.1972 86.0037 11.9838C87.0075 11.7705 87.9886 11.8025 88.9471 12.0798C89.4585 12.1865 89.916 12.4105 90.3195 12.7518C91.0203 13.3278 91.4313 14.2345 91.5526 15.4718C91.5731 15.6211 91.5757 17.0931 91.5604 19.8877C91.5456 22.597 91.5488 23.9623 91.57 23.9836C91.6546 24.133 92.2515 24.2076 93.3608 24.2076H94.0328L94.0279 25.1036L94.023 25.9996H93.767L91.7514 25.9356C90.5781 25.9143 89.4261 25.9143 88.2954 25.9356L86.343 25.9996H86.055L86.0599 25.1036L86.0648 24.2076H86.7368C87.8675 24.2076 88.4653 24.1223 88.5302 23.9516L88.5538 19.6317C88.5486 16.6878 88.4935 15.0558 88.3886 14.7358C88.2005 14.0318 87.7548 13.5945 87.0518 13.4238C86.6042 13.3385 86.1242 13.3491 85.6116 13.4558C84.7359 13.6478 84.0291 14.1598 83.4912 14.9918C83.1688 15.4398 82.9418 15.9731 82.8105 16.5918C82.7667 16.7838 82.7279 18.0424 82.6938 20.3677L82.6742 23.9516C82.7373 24.1223 83.3448 24.2076 84.4968 24.2076H85.1688L85.1639 25.1036L85.159 25.9996H84.903L82.8874 25.9356C81.7355 25.9143 80.5835 25.9143 79.4314 25.9356L77.415 25.9996H77.159L77.1639 25.1036L77.1688 24.2076H77.8408C78.9501 24.2076 79.5479 24.133 79.634 23.9836L79.6827 15.0878C79.6001 14.5758 79.3352 14.2558 78.8879 14.1278C78.6536 14.0638 78.2912 14.0211 77.8006 13.9998H77.2246L77.2295 13.1038L77.2344 12.2078H77.2984L79.8593 12.0478ZM101.258 11.6958C101.664 11.6318 102.261 11.6532 103.05 11.7598C104.201 11.9518 105.158 12.4318 105.922 13.1998C106.728 14.0105 107.256 15.1198 107.504 16.5278C107.586 17.1251 107.626 17.6691 107.623 18.1597C107.622 18.3091 107.579 18.4264 107.493 18.5117L107.397 18.6077H103.045H98.6927L98.6897 19.1517C98.6808 20.773 98.8983 21.9677 99.3421 22.7357C99.8281 23.589 100.572 24.1756 101.572 24.4956C102.084 24.645 102.585 24.7196 103.075 24.7196C103.417 24.7196 103.662 24.6983 103.812 24.6556C104.837 24.357 105.546 23.5677 105.937 22.2877C105.98 22.117 106.045 21.989 106.131 21.9037L106.227 21.8077H106.803H107.379L107.475 21.9037C107.602 22.0103 107.612 22.2343 107.503 22.5757C107.308 23.1303 107.049 23.621 106.727 24.0476C106.404 24.5383 105.975 24.965 105.44 25.3276C104.605 25.9463 103.621 26.2876 102.49 26.3516C100.57 26.4156 98.8989 25.7543 97.4772 24.3676C96.9042 23.813 96.4066 23.1303 95.9844 22.3197C95.4571 21.2104 95.2076 20.0157 95.236 18.7357C95.2634 17.6264 95.536 16.5384 96.0538 15.4718C97.0244 13.5305 98.5138 12.3145 100.522 11.8238C100.757 11.7598 101.002 11.7172 101.258 11.6958ZM102.53 13.2638C102.253 13.1785 101.89 13.1571 101.442 13.1998C100.353 13.4345 99.5813 14.1065 99.1272 15.2158C98.8889 15.8771 98.7683 16.4744 98.7654 17.0077L98.7647 17.1357H101.709H104.653L104.654 16.8797C104.594 16.1118 104.417 15.3971 104.122 14.7358C103.742 13.9891 103.211 13.4985 102.53 13.2638ZM109.198 13.1038L109.202 12.2078H109.426L111.154 12.2718C112.135 12.2931 113.202 12.2931 114.354 12.2718L116.338 12.2078H116.626L116.622 13.1038L116.617 13.9998H116.041C115.272 14.0425 114.867 14.1278 114.823 14.2558C114.823 14.3198 115.769 16.8477 117.662 21.8397L120.128 15.6318C120.258 15.2904 120.323 15.0984 120.323 15.0558C120.367 14.8424 120.283 14.6291 120.07 14.4158C119.795 14.1385 119.422 13.9998 118.953 13.9998H118.825L118.83 13.1038L118.834 12.2078H119.058L120.722 12.2718C121.682 12.2931 122.546 12.2931 123.314 12.2718L124.658 12.2078H124.85L124.846 13.1038L124.841 13.9998H124.425C123.166 14.0638 122.385 14.4158 122.083 15.0558C122.083 15.0344 121.196 17.2851 119.422 21.8077L116.76 28.6556C116.22 29.9996 115.457 31.0235 114.472 31.7275C113.401 32.4955 112.354 32.7408 111.332 32.4635C110.735 32.3142 110.246 32.0155 109.865 31.5675C109.377 30.9915 109.135 30.3196 109.14 29.5516C109.12 29.2102 109.186 28.9116 109.336 28.6556C109.445 28.3782 109.659 28.1649 109.98 28.0156C110.408 27.7809 110.856 27.7276 111.325 27.8556C111.644 27.9409 111.91 28.0902 112.122 28.3036C112.292 28.4742 112.43 28.6982 112.535 28.9756C112.618 29.3596 112.605 29.7436 112.496 30.1276C112.388 30.4262 112.216 30.6822 111.98 30.8955C111.852 30.9809 111.809 31.0235 111.852 31.0235C111.873 31.0875 112.086 31.0875 112.492 31.0235C113.239 30.8529 113.86 30.4369 114.354 29.7756C114.677 29.3702 115.043 28.6449 115.454 27.5996C115.498 27.4929 115.541 27.3863 115.584 27.2796L116.103 25.9996L113.895 20.1437C112.486 16.4104 111.729 14.4371 111.623 14.2238L111.432 14.0958H111.4C111.208 14.0318 110.686 13.9998 109.833 13.9998H109.193L109.198 13.1038ZM111.724 31.0235C111.745 31.0235 111.724 31.0022 111.66 30.9595C111.596 30.9169 111.532 30.8849 111.468 30.8635C111.383 30.7995 111.32 30.7675 111.277 30.7675L111.724 31.0235Z" fill="#FFC040"/>
<path d="M68.9219 35.6307C76.3139 35.6307 80.6699 40.1627 80.6699 50.9867C80.6699 61.8107 76.0059 66.4307 68.7899 66.4307H61.9699V35.6307H68.9219ZM68.9219 61.0627C73.8499 61.0627 75.0379 56.7507 75.0379 51.0747C75.0379 45.3987 73.8499 40.9987 68.9219 40.9987H67.4699V61.0627H68.9219ZM103.474 35.6307V54.1107C103.474 62.1187 101.098 66.9147 94.3219 66.9147C87.7659 66.9147 85.1699 61.8547 85.1699 54.1987V35.6307H90.6699V54.1987C90.6699 59.5227 91.8579 61.4587 94.3659 61.4587C96.9179 61.4587 97.9739 59.5227 97.9739 54.1987V35.6307H103.474ZM125.256 61.1507V66.4307H109.064V35.6307H124.86V40.9107H114.564V47.4227H121.472V52.6147H114.564V61.1507H125.256Z" fill="#D8D8F0"/>
<g clip-path="url(#clip0_822_1536)">
<path d="M2.03253 33.6586L7.39111 28.3037V15.1807C7.39111 13.1481 9.05412 11.4851 11.0867 11.4851H14.7823C16.8148 11.4851 18.4778 13.1481 18.4778 15.1807V17.2244L25.869 9.84059C26.8779 8.88714 27.8018 7.78955 29.5646 7.78955C31.3273 7.78955 32.2512 8.88714 33.2601 9.84059L57.0966 33.6586C58.2496 34.8596 59.1292 35.7355 59.1292 37.3541C59.1292 39.4348 57.5327 41.0497 55.4336 41.0497H51.738V63.2232C51.738 65.2557 50.075 66.9187 48.0424 66.9187H36.9557V48.4409C36.9557 46.4083 35.2927 44.7453 33.2601 44.7453H25.869C23.8364 44.7453 22.1734 46.4083 22.1734 48.4409V66.9187H11.0867C9.05412 66.9187 7.39111 65.2557 7.39111 63.2232V41.0497H3.69554C1.59645 41.0497 -3.43323e-05 39.4348 -3.43323e-05 37.3541C-3.43323e-05 35.7355 0.879513 34.8596 2.03253 33.6586Z" fill="#FFC040"/>
</g>
<defs>
<clipPath id="clip0_822_1536">
<rect width="59.1292" height="59.1292" fill="white" transform="matrix(-1 0 0 1 59.1292 7.78955)"/>
</clipPath>
</defs>
</svg>
