<svg width="80" height="80" viewBox="0 0 80 80" fill="none" xmlns="http://www.w3.org/2000/svg">
<path d="M63.4553 51.5256C62.0676 49.2274 60.0047 42.7248 60.0047 34.2316C60.0047 29.1311 57.8972 24.2394 54.1458 20.6328C50.3945 17.0262 45.3065 15 40.0013 15C34.696 15 29.608 17.0262 25.8567 20.6328C22.1053 24.2394 19.9978 29.1311 19.9978 34.2316C19.9978 42.7272 17.9324 49.2274 16.5447 51.5256C16.1903 52.1099 16.0024 52.7737 16 53.45C15.9976 54.1263 16.1807 54.7913 16.5309 55.3779C16.8811 55.9645 17.386 56.452 17.9947 56.7911C18.6034 57.1302 19.2943 57.309 19.9978 57.3095H30.2021C30.6636 59.4807 31.8909 61.4319 33.6765 62.8333C35.4621 64.2346 37.6963 65 40.0013 65C42.3062 65 44.5404 64.2346 46.326 62.8333C48.1116 61.4319 49.3389 59.4807 49.8004 57.3095H60.0047C60.708 57.3086 61.3986 57.1295 62.0069 56.7902C62.6152 56.4509 63.1198 55.9634 63.4697 55.3769C63.8196 54.7904 64.0025 54.1255 64 53.4494C63.9975 52.7733 63.8096 52.1097 63.4553 51.5256ZM40.0013 61.1558C38.7606 61.1555 37.5505 60.7854 36.5376 60.0966C35.5248 59.4078 34.7588 58.4341 34.3453 57.3095H45.6572C45.2437 58.4341 44.4777 59.4078 43.4649 60.0966C42.452 60.7854 41.2419 61.1555 40.0013 61.1558Z" fill="#D8D8F0"/>
<ellipse cx="55.8462" cy="23.5849" rx="13.8462" ry="13.5849" fill="#FFC040"/>
<path d="M52.4023 31C52.2773 31 52.1797 30.9492 52.1094 30.8477C52.0391 30.7383 52.0039 30.6289 52.0039 30.5195C52.0039 30.2227 52.1328 30.0586 52.3906 30.0273C52.9453 29.9805 53.4492 29.9023 53.9023 29.793C54.3633 29.6758 54.5938 29.5039 54.5938 29.2773L54.6055 19.457C54.2617 19.6992 53.9023 19.8984 53.5273 20.0547C53.1602 20.2031 52.8359 20.2773 52.5547 20.2773C52.3359 20.2773 52.1797 20.1914 52.0859 20.0195C51.9922 19.8398 51.9453 19.6719 51.9453 19.5156C51.9453 19.3125 51.9766 19.1367 52.0391 18.9883C52.1094 18.832 52.2188 18.75 52.3672 18.7422C52.6094 18.7266 52.9766 18.6328 53.4688 18.4609C53.9609 18.2812 54.4492 18.0664 54.9336 17.8164C55.418 17.5586 55.7773 17.3086 56.0117 17.0664H57.9336L57.9219 28.9961C57.9219 29.6211 58.6328 29.9648 60.0547 30.0273C60.2188 30.0352 60.3281 30.0742 60.3828 30.1445C60.4453 30.2148 60.4766 30.3398 60.4766 30.5195C60.4766 30.6289 60.4414 30.7383 60.3711 30.8477C60.3008 30.9492 60.2031 31 60.0781 31H52.4023Z" fill="#3D3781"/>
</svg>
