<svg width="90" height="102" viewBox="0 0 90 102" fill="none" xmlns="http://www.w3.org/2000/svg">
<g filter="url(#filter0_d_949_1613)">
<path d="M86 66.6821V27.2694C86 24.6099 84.5765 22.172 82.2915 20.8053L48.952 1.08043C46.5171 -0.360144 43.5203 -0.360144 41.0854 1.08043L7.70854 20.8053C5.38602 22.172 4 24.6099 4 27.2694V66.6821C4 69.3416 5.42348 71.7795 7.70854 73.1462L41.0854 92.871C44.6067 94.8657 47.5286 93.7945 48.952 92.871L82.2915 73.1462C84.5765 71.7795 86 69.3416 86 66.6821Z" fill="#D8D8F0"/>
<path d="M63.75 47C63.75 47.5967 63.5129 48.169 63.091 48.591C62.669 49.0129 62.0967 49.25 61.5 49.25H47.25V63.5C47.25 64.0967 47.0129 64.669 46.591 65.091C46.169 65.5129 45.5967 65.75 45 65.75C44.4033 65.75 43.831 65.5129 43.409 65.091C42.9871 64.669 42.75 64.0967 42.75 63.5V49.25H28.5C27.9033 49.25 27.331 49.0129 26.909 48.591C26.4871 48.169 26.25 47.5967 26.25 47C26.25 46.4033 26.4871 45.831 26.909 45.409C27.331 44.9871 27.9033 44.75 28.5 44.75H42.75V30.5C42.75 29.9033 42.9871 29.331 43.409 28.909C43.831 28.4871 44.4033 28.25 45 28.25C45.5967 28.25 46.169 28.4871 46.591 28.909C47.0129 29.331 47.25 29.9033 47.25 30.5V44.75H61.5C62.0967 44.75 62.669 44.9871 63.091 45.409C63.5129 45.831 63.75 46.4033 63.75 47Z" fill="#6862A8"/>
</g>
<defs>
<filter id="filter0_d_949_1613" x="0" y="0" width="90" height="102" filterUnits="userSpaceOnUse" color-interpolation-filters="sRGB">
<feFlood flood-opacity="0" result="BackgroundImageFix"/>
<feColorMatrix in="SourceAlpha" type="matrix" values="0 0 0 0 0 0 0 0 0 0 0 0 0 0 0 0 0 0 127 0" result="hardAlpha"/>
<feOffset dy="4"/>
<feGaussianBlur stdDeviation="2"/>
<feComposite in2="hardAlpha" operator="out"/>
<feColorMatrix type="matrix" values="0 0 0 0 0 0 0 0 0 0 0 0 0 0 0 0 0 0 0.25 0"/>
<feBlend mode="normal" in2="BackgroundImageFix" result="effect1_dropShadow_949_1613"/>
<feBlend mode="normal" in="SourceGraphic" in2="effect1_dropShadow_949_1613" result="shape"/>
</filter>
</defs>
</svg>
