<svg width="116" height="116" viewBox="0 0 116 116" fill="none" xmlns="http://www.w3.org/2000/svg">
<g clip-path="url(#clip0_822_2611)">
<path d="M41.75 34.3037C41.75 33.5195 42.3492 32.875 43.1008 32.875C43.4563 32.875 43.8016 33.0254 44.0555 33.2939L45.5688 34.8945C45.2031 35.8613 45 36.9248 45 38.0312C45 40.1689 45.7312 42.1133 46.95 43.6172C46.4117 44.6055 46.5437 45.8838 47.3359 46.7324C48.2906 47.7422 49.8344 47.7422 50.7789 46.7324L61.3516 35.5605C62.3062 34.5508 62.3062 32.918 61.3516 31.9189C60.5492 31.0703 59.3406 30.9414 58.4062 31.5107C56.9844 30.2109 55.1461 29.4375 53.125 29.4375C52.0789 29.4375 51.0734 29.6523 50.1594 30.0283L48.6461 28.4277C47.1734 26.8701 45.1727 26 43.1008 26C38.7641 26 35.25 29.7168 35.25 34.3037V53.5C33.4523 53.5 32 55.0361 32 56.9375C32 58.8389 33.4523 60.375 35.25 60.375H80.75C82.5477 60.375 84 58.8389 84 56.9375C84 55.0361 82.5477 53.5 80.75 53.5H41.75V34.3037ZM35.25 63.8125V65.5312C35.25 68.582 36.5094 71.332 38.5 73.2227V77.5625C38.5 79.4639 39.9523 81 41.75 81C43.5477 81 45 79.4639 45 77.5625V75.8438H71V77.5625C71 79.4639 72.4523 81 74.25 81C76.0477 81 77.5 79.4639 77.5 77.5625V73.2227C79.4906 71.332 80.75 68.5928 80.75 65.5312V63.8125H35.25Z" fill="#3D3781"/>
</g>
<g filter="url(#filter0_d_822_2611)">
<path d="M81.2145 102.755C92.3556 97.4507 101.344 88.4903 106.683 77.3658C112.022 66.2412 113.391 53.6236 110.56 41.6131C107.73 29.6027 100.871 18.9239 91.1261 11.3542C81.3811 3.78461 69.3376 -0.219195 57.0003 0.00925527L57.2351 12.6943C66.6739 12.5196 75.8878 15.5827 83.3432 21.3738C90.7985 27.165 96.0457 35.3348 98.2112 44.5234C100.377 53.712 99.3299 63.3652 95.245 71.876C91.1602 80.3868 84.2837 87.242 75.7603 91.3004L81.2145 102.755Z" fill="#BDBDBD"/>
<path d="M58 0C49.885 -9.67708e-08 41.8743 1.82898 34.5634 5.351C27.2525 8.87302 20.8294 13.9975 15.7716 20.3435C10.7137 26.6896 7.15119 34.0939 5.34879 42.0063C3.54639 49.9186 3.55046 58.1354 5.36072 66.046C7.17097 73.9565 10.7408 81.3574 15.805 87.6984C20.8691 94.0394 27.2973 99.1575 34.6117 102.672C41.9261 106.187 49.9386 108.008 58.0536 108C66.1686 107.992 74.1775 106.155 81.4849 102.626L75.9671 91.2011C70.3766 93.9012 64.2494 95.3066 58.041 95.3127C51.8326 95.3189 45.7026 93.9257 40.1067 91.2367C34.5109 88.5478 29.593 84.6322 25.7187 79.781C21.8443 74.9298 19.1132 69.2678 17.7283 63.2158C16.3433 57.1638 16.3402 50.8775 17.7191 44.8242C19.0981 38.7708 21.8236 33.1061 25.6931 28.2511C29.5626 23.396 34.4766 19.4756 40.0698 16.781C45.663 14.0865 51.7916 12.6872 58 12.6872V0Z" fill="#FFC040"/>
</g>
<defs>
<filter id="filter0_d_822_2611" x="0" y="0" width="116" height="116" filterUnits="userSpaceOnUse" color-interpolation-filters="sRGB">
<feFlood flood-opacity="0" result="BackgroundImageFix"/>
<feColorMatrix in="SourceAlpha" type="matrix" values="0 0 0 0 0 0 0 0 0 0 0 0 0 0 0 0 0 0 127 0" result="hardAlpha"/>
<feOffset dy="4"/>
<feGaussianBlur stdDeviation="2"/>
<feComposite in2="hardAlpha" operator="out"/>
<feColorMatrix type="matrix" values="0 0 0 0 0 0 0 0 0 0 0 0 0 0 0 0 0 0 0.25 0"/>
<feBlend mode="normal" in2="BackgroundImageFix" result="effect1_dropShadow_822_2611"/>
<feBlend mode="normal" in="SourceGraphic" in2="effect1_dropShadow_822_2611" result="shape"/>
</filter>
<clipPath id="clip0_822_2611">
<rect width="52" height="55" fill="white" transform="translate(32 26)"/>
</clipPath>
</defs>
</svg>
