<svg width="116" height="116" viewBox="0 0 116 116" fill="none" xmlns="http://www.w3.org/2000/svg">
<path d="M61.25 37.75C61.25 35.9523 62.7023 34.5 64.5 34.5C66.2977 34.5 67.75 35.9523 67.75 37.75C67.75 39.5477 69.2023 41 71 41C72.7977 41 74.25 39.5477 74.25 37.75C74.25 32.3672 69.8828 28 64.5 28C59.1172 28 54.75 32.3672 54.75 37.75V57.25H48.25V54.8125C48.25 51.6742 45.7008 49.125 42.5625 49.125H37.6875C36.3367 49.125 35.25 50.2117 35.25 51.5625C35.25 52.9133 36.3367 54 37.6875 54H42.5625C43.0094 54 43.375 54.3656 43.375 54.8125V57.25H35.25C33.4523 57.25 32 58.7023 32 60.5C32 62.2977 33.4523 63.75 35.25 63.75H58H80.75C82.5477 63.75 84 62.2977 84 60.5C84 58.7023 82.5477 57.25 80.75 57.25H72.625V54.8125C72.625 54.3656 72.9906 54 73.4375 54H79.125C80.4758 54 81.5625 52.9133 81.5625 51.5625C81.5625 50.2117 80.4758 49.125 79.125 49.125H73.4375C70.2992 49.125 67.75 51.6742 67.75 54.8125V57.25H61.25V37.75ZM80.75 70.25V67H35.25V70.25C35.25 75.6328 39.6172 80 45 80H71C76.3828 80 80.75 75.6328 80.75 70.25Z" fill="#3D3781"/>
<g filter="url(#filter0_d_822_2598)">
<path d="M108.097 74.1564C111.392 65.9675 112.629 57.0957 111.7 48.3178C110.771 39.5398 107.705 31.1234 102.769 23.8054C97.8336 16.4873 91.1792 10.4908 83.3887 6.34067C75.5983 2.19058 66.9092 0.0135154 58.0823 6.27134e-05L58.063 12.6873C64.816 12.6976 71.4636 14.3632 77.4237 17.5382C83.3838 20.7132 88.4747 25.3009 92.2507 30.8996C96.0268 36.4983 98.3728 42.9372 99.0834 49.6528C99.794 56.3684 98.8475 63.1557 96.3268 69.4207L108.097 74.1564Z" fill="#BDBDBD"/>
<path d="M58 0C48.1925 -1.16953e-07 38.5703 2.67095 30.166 7.72615C21.7618 12.7813 14.8929 20.0299 10.2968 28.6937C5.70072 37.3576 3.55087 47.1095 4.07808 56.9028C4.60528 66.6961 7.78962 76.1609 13.2893 84.2812C18.7889 92.4015 26.3962 98.8708 35.2946 102.995C44.193 107.118 54.0464 108.741 63.7972 107.688C73.548 106.635 82.8279 102.947 90.6409 97.0183C98.4538 91.0901 104.505 83.146 108.144 74.0388L96.3629 69.3307C93.5785 76.2982 88.9492 82.3758 82.9719 86.9112C76.9946 91.4466 69.895 94.2685 62.4351 95.074C54.9753 95.8795 47.4369 94.6382 40.6292 91.4833C33.8215 88.3285 28.0015 83.3791 23.794 77.1667C19.5865 70.9542 17.1503 63.7131 16.747 56.2208C16.3436 48.7284 17.9884 41.2677 21.5046 34.6394C25.0209 28.0111 30.2759 22.4656 36.7056 18.5981C43.1353 14.7307 50.4968 12.6872 58 12.6872V0Z" fill="#FFC040"/>
</g>
<defs>
<filter id="filter0_d_822_2598" x="0" y="0" width="116" height="116" filterUnits="userSpaceOnUse" color-interpolation-filters="sRGB">
<feFlood flood-opacity="0" result="BackgroundImageFix"/>
<feColorMatrix in="SourceAlpha" type="matrix" values="0 0 0 0 0 0 0 0 0 0 0 0 0 0 0 0 0 0 127 0" result="hardAlpha"/>
<feOffset dy="4"/>
<feGaussianBlur stdDeviation="2"/>
<feComposite in2="hardAlpha" operator="out"/>
<feColorMatrix type="matrix" values="0 0 0 0 0 0 0 0 0 0 0 0 0 0 0 0 0 0 0.25 0"/>
<feBlend mode="normal" in2="BackgroundImageFix" result="effect1_dropShadow_822_2598"/>
<feBlend mode="normal" in="SourceGraphic" in2="effect1_dropShadow_822_2598" result="shape"/>
</filter>
</defs>
</svg>
