<svg width="116" height="116" viewBox="0 0 116 116" fill="none" xmlns="http://www.w3.org/2000/svg">
<path d="M35.7321 29C34.2181 29 33 30.0867 33 31.4375C33 32.7883 34.2181 33.875 35.7321 33.875H36.6429V48.9977C36.4266 49.1398 36.2103 49.2922 36.0054 49.4445C34.2408 50.7852 33 52.6539 33 55C33 59.7633 34.6279 63.5414 37.2121 66.4258C38.8286 68.2234 40.7525 69.6047 42.7333 70.6711L40.4679 76.7242C40.0922 77.7195 40.2857 78.8063 40.9688 79.6492C41.6518 80.4922 42.756 81 43.9286 81H73.0714C74.244 81 75.3368 80.5023 76.0313 79.6492C76.7257 78.7961 76.9078 77.7094 76.5321 76.7242L74.2781 70.6812C76.2589 69.6148 78.1828 68.2336 79.7993 66.4359C82.3835 63.5516 84.0114 59.7836 84.0114 55.0102C84.0114 52.6641 82.7705 50.7953 81.006 49.4648C80.8011 49.3125 80.5848 49.1602 80.3685 49.018V33.875H81.2792C82.7933 33.875 84.0114 32.7883 84.0114 31.4375C84.0114 30.0867 82.7933 29 81.2792 29H35.7321ZM76.7143 55.0305C76.7143 55.132 76.6801 55.2945 76.2817 55.5992C75.7353 56.0156 74.6879 56.5133 72.9462 56.9602C69.4855 57.8437 64.431 58.25 58.5 58.25C52.569 58.25 47.5145 57.8438 44.0538 56.95C42.3121 56.5031 41.2647 56.0055 40.7183 55.5891C40.3199 55.2844 40.2857 55.1219 40.2857 55.0203V54.9898V54.9797C40.2857 54.8781 40.2857 54.7258 40.7183 54.3906C41.2647 53.9742 42.3121 53.4766 44.0538 53.0297C47.5145 52.1562 52.569 51.75 58.5 51.75C64.431 51.75 69.4855 52.1562 72.9462 53.05C74.6879 53.4969 75.7353 53.9945 76.2817 54.4109C76.7143 54.7359 76.7143 54.8984 76.7143 55V55.0102V55.0406V55.0305ZM70.3621 68L70.3393 68.0508V68H70.3621ZM45.75 35.5H49.3929C50.3946 35.5 51.2143 36.2312 51.2143 37.125C51.2143 38.0188 50.3946 38.75 49.3929 38.75H45.75C44.7482 38.75 43.9286 38.0188 43.9286 37.125C43.9286 36.2312 44.7482 35.5 45.75 35.5Z" fill="#3D3781"/>
<g filter="url(#filter0_d_822_2605)">
<path d="M101.785 85.6044C107.613 77.5303 111.095 68.0019 111.846 58.0726C112.597 48.1432 110.588 38.1996 106.041 29.3407C101.494 20.4819 94.5854 13.0529 86.0799 7.87494C77.5743 2.69696 67.8026 -0.0283656 57.845 0.000222545L57.8814 12.6874C65.4995 12.6655 72.9753 14.7506 79.4825 18.712C85.9897 22.6734 91.2748 28.357 94.7537 35.1344C98.2325 41.9119 99.7696 49.5193 99.1951 57.1157C98.6205 64.7122 95.9567 72.0019 91.4981 78.179L101.785 85.6044Z" fill="#BDBDBD"/>
<path d="M58 0C48.763 -1.1015e-07 39.6805 2.36942 31.6207 6.88174C23.5608 11.3941 16.7932 17.8984 11.9649 25.773C7.13648 33.6475 4.40876 42.629 4.04247 51.8587C3.67619 61.0884 5.68359 70.2578 9.87275 78.4902C14.0619 86.7226 20.2928 93.7428 27.9697 98.8796C35.6466 104.016 44.5128 107.098 53.7207 107.83C62.9286 108.562 72.1704 106.92 80.5624 103.061C88.9545 99.2011 96.2163 93.2535 101.653 85.7864L91.3971 78.3182C87.2374 84.0309 81.6818 88.5812 75.2614 91.5338C68.8411 94.4865 61.7707 95.7428 54.7261 95.1828C47.6816 94.6228 40.8985 92.2651 35.0253 88.3352C29.1521 84.4053 24.3851 79.0344 21.1802 72.7362C17.9753 66.438 16.4395 59.423 16.7197 52.3618C17 45.3006 19.0868 38.4293 22.7808 32.4049C26.4747 26.3805 31.6523 21.4043 37.8185 17.9521C43.9846 14.5 50.9332 12.6872 58 12.6872V0Z" fill="#FFC040"/>
</g>
<defs>
<filter id="filter0_d_822_2605" x="0" y="0" width="116" height="116" filterUnits="userSpaceOnUse" color-interpolation-filters="sRGB">
<feFlood flood-opacity="0" result="BackgroundImageFix"/>
<feColorMatrix in="SourceAlpha" type="matrix" values="0 0 0 0 0 0 0 0 0 0 0 0 0 0 0 0 0 0 127 0" result="hardAlpha"/>
<feOffset dy="4"/>
<feGaussianBlur stdDeviation="2"/>
<feComposite in2="hardAlpha" operator="out"/>
<feColorMatrix type="matrix" values="0 0 0 0 0 0 0 0 0 0 0 0 0 0 0 0 0 0 0.25 0"/>
<feBlend mode="normal" in2="BackgroundImageFix" result="effect1_dropShadow_822_2605"/>
<feBlend mode="normal" in="SourceGraphic" in2="effect1_dropShadow_822_2605" result="shape"/>
</filter>
</defs>
</svg>
