<svg width="116" height="116" viewBox="0 0 116 116" fill="none" xmlns="http://www.w3.org/2000/svg">
<g filter="url(#filter0_d_822_2638)">
<path d="M93.0817 95.0521C101.507 87.8524 107.512 78.2349 110.284 67.5049C113.056 56.7749 112.459 45.452 108.574 35.0728C104.69 24.6937 97.7063 15.761 88.5711 9.487C79.4359 3.21303 68.5916 -0.0983669 57.5098 0.00222457L57.625 12.689C66.1031 12.612 74.3996 15.1454 81.3885 19.9453C88.3773 24.7452 93.7202 31.5792 96.6919 39.5197C99.6637 47.4603 100.12 56.1229 97.9999 64.3319C95.8796 72.5409 91.2848 79.8988 84.8393 85.4069L93.0817 95.0521Z" fill="#BDBDBD"/>
<path d="M58 0C48.2316 -1.16487e-07 38.6462 2.64971 30.2648 7.6669C21.8833 12.6841 15.0198 19.8808 10.4052 28.4905C5.79064 37.1002 3.59792 46.8004 4.06061 56.5578C4.5233 66.3152 7.62406 75.7643 13.0326 83.8987C18.4411 92.0331 25.9549 98.5481 34.7735 102.75C43.5921 106.951 53.3852 108.682 63.1098 107.758C72.8343 106.833 82.126 103.289 89.9951 97.5007C97.8642 91.713 104.016 83.8991 107.795 74.8914L96.0958 69.983C93.2045 76.8743 88.4981 82.8523 82.4779 87.2803C76.4576 91.7082 69.349 94.4202 61.9092 95.1274C54.4695 95.8345 46.9772 94.5104 40.2305 91.296C33.4839 88.0816 27.7355 83.0973 23.5977 76.874C19.4598 70.6508 17.0876 63.4217 16.7336 55.9568C16.3796 48.4919 18.0572 41.0708 21.5875 34.4839C25.1179 27.8971 30.3689 22.3912 36.7811 18.5528C43.1934 14.7144 50.5267 12.6872 58 12.6872V0Z" fill="#FFC040"/>
</g>
<path d="M58.5 36.9375C57.2437 36.9375 56.4062 36.1 56.4062 34.8438V18.0938C56.4062 16.8375 57.2437 16 58.5 16C59.7563 16 60.5938 16.8375 60.5938 18.0938V34.8438C60.5938 36.1 59.7563 36.9375 58.5 36.9375Z" fill="#3D3781"/>
<path d="M68.9687 34.425C68.7593 33.3781 67.9218 32.75 66.8749 32.75H50.1249C49.078 32.75 48.2405 33.3781 48.0312 34.425C45.3093 46.9875 45.3093 60.3875 48.0312 72.95C48.2405 73.9969 49.078 74.625 50.1249 74.625H66.8749C67.9218 74.625 68.7593 73.9969 68.9687 72.95C71.6905 60.3875 71.6905 46.9875 68.9687 34.425ZM60.5937 43.6375C60.5937 43.8469 60.5937 43.8469 60.3843 44.0562C60.3843 44.2656 60.1749 44.2656 60.1749 44.475L59.9655 44.6844C59.5468 45.1031 59.128 45.3125 58.4999 45.3125C58.2905 45.3125 57.8718 45.3125 57.6624 45.1031C57.453 44.8937 57.2437 44.8937 57.0343 44.6844C56.6155 44.2656 56.4062 43.8469 56.4062 43.2188C56.4062 42.5906 56.6155 42.1719 57.0343 41.7531C57.2437 41.5438 57.453 41.3344 57.6624 41.3344C58.4999 40.9156 59.3374 41.125 59.9655 41.7531C60.3843 42.1719 60.5937 42.5906 60.5937 43.2188C60.5937 43.4281 60.5937 43.4281 60.5937 43.6375Z" fill="#3D3781"/>
<path d="M73.3657 71.9031C73.1564 72.5312 73.1564 73.1593 72.947 73.9968C72.3189 76.7187 69.8064 78.8124 66.8751 78.8124H50.1251C47.1939 78.8124 44.6814 76.7187 44.0532 73.9968C43.8439 73.1593 43.8439 72.5312 43.6345 71.9031C43.4251 72.1125 43.4251 72.5312 43.4251 72.95L41.7501 80.4874C41.5407 81.1156 41.7501 81.7437 42.1689 82.1625C42.5876 82.7906 43.2157 82.9999 43.8439 82.9999H73.1564C73.7845 82.9999 74.4126 82.7906 74.8314 82.1625C75.2501 81.7437 75.4595 81.1156 75.2501 80.4874L73.7845 72.7406C73.5751 72.5312 73.5751 72.1125 73.3657 71.9031Z" fill="#3D3781"/>
<defs>
<filter id="filter0_d_822_2638" x="0" y="0" width="116" height="116" filterUnits="userSpaceOnUse" color-interpolation-filters="sRGB">
<feFlood flood-opacity="0" result="BackgroundImageFix"/>
<feColorMatrix in="SourceAlpha" type="matrix" values="0 0 0 0 0 0 0 0 0 0 0 0 0 0 0 0 0 0 127 0" result="hardAlpha"/>
<feOffset dy="4"/>
<feGaussianBlur stdDeviation="2"/>
<feComposite in2="hardAlpha" operator="out"/>
<feColorMatrix type="matrix" values="0 0 0 0 0 0 0 0 0 0 0 0 0 0 0 0 0 0 0.25 0"/>
<feBlend mode="normal" in2="BackgroundImageFix" result="effect1_dropShadow_822_2638"/>
<feBlend mode="normal" in="SourceGraphic" in2="effect1_dropShadow_822_2638" result="shape"/>
</filter>
</defs>
</svg>
