<svg width="116" height="116" viewBox="0 0 116 116" fill="none" xmlns="http://www.w3.org/2000/svg">
<path d="M44.8291 65.9746H58.4873V59.1455H44.8291V65.9746ZM52.6338 60.1211H57.5117V64.999H52.6338V60.1211ZM45.8047 60.1211H50.6826V64.999H45.8047V60.1211Z" fill="#3D3781"/>
<path d="M68.2432 65.9746C69.8568 65.9746 71.1699 64.6615 71.1699 63.0479C71.1699 62.5971 71.0597 62.1757 70.8763 61.7942L68.9329 63.7376L67.5534 62.3581L69.4968 60.4147C69.1153 60.2323 68.6939 60.1211 68.2432 60.1211C66.6295 60.1211 65.3164 61.4342 65.3164 63.0479C65.3164 64.6615 66.6295 65.9746 68.2432 65.9746Z" fill="#3D3781"/>
<path d="M38 71.8281V82.1371C38 82.9079 38.6273 83.5352 39.398 83.5352H76.602C77.3727 83.5352 78 82.9079 78 82.1371V71.8281H38ZM60.4385 77.6816H55.5605C55.021 77.6816 54.585 77.2456 54.585 76.7061C54.585 76.1666 55.021 75.7305 55.5605 75.7305H60.4385C60.978 75.7305 61.4141 76.1666 61.4141 76.7061C61.4141 77.2456 60.978 77.6816 60.4385 77.6816Z" fill="#3D3781"/>
<path d="M77.999 69.877V25H38V69.877H77.999ZM68.2432 58.1699C70.9329 58.1699 73.1211 60.3582 73.1211 63.0479C73.1211 65.7375 70.9329 67.9258 68.2432 67.9258C65.5535 67.9258 63.3652 65.7375 63.3652 63.0479C63.3652 60.3582 65.5535 58.1699 68.2432 58.1699ZM42.8779 57.1943H60.4385V67.9258H42.8779V57.1943Z" fill="#3D3781"/>
<g filter="url(#filter0_d_822_2647)">
<path d="M84.5819 101.004C95.0021 95.1114 103.169 85.9231 107.798 74.8835C112.428 63.8439 113.258 51.5789 110.158 40.0162C107.058 28.4535 100.204 18.2487 90.6724 11.0056C81.1411 3.76262 69.4733 -0.107947 57.5027 0.0022896L57.6196 12.689C66.7776 12.6047 75.7041 15.5658 82.996 21.1071C90.2879 26.6484 95.5318 34.4556 97.9035 43.3017C100.275 52.1477 99.6402 61.5311 96.0983 69.977C92.5564 78.4228 86.3085 85.4523 78.3365 89.9607L84.5819 101.004Z" fill="#BDBDBD"/>
<path d="M58 0C49.7216 -9.87189e-08 41.554 1.90334 34.1285 5.56293C26.7029 9.22252 20.2181 14.5404 15.1753 21.1056C10.1324 27.6707 6.66657 35.3075 5.04547 43.4256C3.42438 51.5437 3.69147 59.9259 5.82612 67.9243C7.96077 75.9228 11.9058 83.3233 17.3564 89.5541C22.807 95.785 29.6171 100.679 37.2606 103.859C44.9041 107.038 53.1763 108.417 61.4379 107.89C69.6995 107.363 77.7293 104.944 84.9069 100.819L78.5851 89.8189C73.0939 92.9747 66.9507 94.8257 60.6302 95.2289C54.3096 95.6322 47.981 94.5768 42.1333 92.1444C36.2857 89.7119 31.0755 85.9676 26.9056 81.2007C22.7356 76.4338 19.7174 70.772 18.0843 64.6528C16.4512 58.5336 16.2469 52.1208 17.4871 45.91C18.7273 39.6993 21.3789 33.8568 25.2369 28.8341C29.0949 23.8114 34.0561 19.7429 39.7371 16.9432C45.418 14.1434 51.6666 12.6872 58 12.6872V0Z" fill="#FFC040"/>
</g>
<defs>
<filter id="filter0_d_822_2647" x="0" y="0" width="116" height="116" filterUnits="userSpaceOnUse" color-interpolation-filters="sRGB">
<feFlood flood-opacity="0" result="BackgroundImageFix"/>
<feColorMatrix in="SourceAlpha" type="matrix" values="0 0 0 0 0 0 0 0 0 0 0 0 0 0 0 0 0 0 127 0" result="hardAlpha"/>
<feOffset dy="4"/>
<feGaussianBlur stdDeviation="2"/>
<feComposite in2="hardAlpha" operator="out"/>
<feColorMatrix type="matrix" values="0 0 0 0 0 0 0 0 0 0 0 0 0 0 0 0 0 0 0.25 0"/>
<feBlend mode="normal" in2="BackgroundImageFix" result="effect1_dropShadow_822_2647"/>
<feBlend mode="normal" in="SourceGraphic" in2="effect1_dropShadow_822_2647" result="shape"/>
</filter>
</defs>
</svg>
